<?xml version="1.0" encoding="UTF-8"?>
<svg width="24px" height="24px" viewBox="0 0 24 24" version="1.1" xmlns="http://www.w3.org/2000/svg" xmlns:xlink="http://www.w3.org/1999/xlink">
    <!-- Generator: Sketch 51 (57462) - http://www.bohemiancoding.com/sketch -->
    <title>100 editor - rotate left</title>
    <desc>Created with Sketch.</desc>
    <defs></defs>
    <g id="Page-1" stroke="none" stroke-width="1" fill="none" fill-rule="evenodd">
        <g id="DA-iconset-alpha" transform="translate(-456.000000, -216.000000)">
            <g id="icons/image/rotate_acw" transform="translate(456.000000, 216.000000)">
                <polygon id="bounds" points="0 0 24 0 24 24 0 24"></polygon>
                <path d="M12.9999947,6.07088886 L12.9999947,9 L7.99999473,5 L12.9999947,1 L12.9999947,4.05492878 C17.4999452,4.55237307 20.9999947,8.36744635 20.9999947,13 C20.9999947,17.9705627 16.9705575,22 11.9999947,22 C10.4552382,22 8.96480588,21.6095206 7.64190995,20.876135 L8.61162264,19.1269474 C9.63964957,19.6968638 10.7966989,20 11.9999947,20 C15.865988,20 18.9999947,16.8659932 18.9999947,13 C18.9999947,9.47352809 16.3922889,6.55611852 12.9999947,6.07088886 Z M3.01697547,13.5568887 C3.00586792,13.3752457 3.00019623,13.1928391 3,13.0098373 C2.99999426,11.6504196 3.29798043,10.3397119 3.86609156,9.14340309 L5.6727259,10.0013497 C5.23138561,10.9307088 4.99999539,11.9484907 4.99999943,13.0087613 C5.00015217,13.1506832 5.00458031,13.2930957 5.01324655,13.4348159 L3.01697547,13.5568887 Z M5.83664203,19.558469 C4.72793601,18.5161996 3.89694968,17.2087613 3.43007499,15.7559505 L5.33417037,15.1440512 C5.69687481,16.2727072 6.34331528,17.2897889 7.20652187,18.1012699 L5.83664203,19.558469 Z" id="Combined-Shape" fill="#000000" fill-rule="nonzero"></path>
            </g>
        </g>
    </g>
</svg>