<?xml version="1.0" encoding="UTF-8"?>
<svg width="24px" height="24px" viewBox="0 0 24 24" version="1.1" xmlns="http://www.w3.org/2000/svg" xmlns:xlink="http://www.w3.org/1999/xlink">
    <!-- Generator: Sketch 51 (57462) - http://www.bohemiancoding.com/sketch -->
    <title>101 editor - rotate right</title>
    <desc>Created with Sketch.</desc>
    <defs></defs>
    <g id="Page-1" stroke="none" stroke-width="1" fill="none" fill-rule="evenodd">
        <g id="DA-iconset-alpha" transform="translate(-408.000000, -216.000000)">
            <g id="icons/image/rotate_cw" transform="translate(408.000000, 216.000000)">
                <polygon id="bounds" points="0 0 24 0 24 24 0 24"></polygon>
                <path d="M11,6.07088886 C7.60770586,6.55611852 5,9.47352809 5,13 C5,16.8659932 8.13400675,20 12,20 C13.2032958,20 14.3603452,19.6968638 15.3883721,19.1269474 L16.3580848,20.876135 C15.0351888,21.6095206 13.5447565,22 12,22 C7.02943725,22 3,17.9705627 3,13 C3,8.36744635 6.50004954,4.55237307 11,4.05492878 L11,1 L16,5 L11,9 L11,6.07088886 Z M20.9830193,13.5568887 L18.9867482,13.4348159 C18.9954144,13.2930957 18.9998426,13.1506832 18.9999953,13.0087613 C18.9999993,11.9484907 18.7686091,10.9307088 18.3272688,10.0013497 L20.1339032,9.14340309 C20.7020143,10.3397119 21.0000005,11.6504196 20.9999947,13.0098373 C20.9997985,13.1928391 20.9941268,13.3752457 20.9830193,13.5568887 Z M18.1633527,19.558469 L16.7934729,18.1012699 C17.6566794,17.2897889 18.3031199,16.2727072 18.6658244,15.1440512 L20.5699197,15.7559505 C20.103045,17.2087613 19.2720587,18.5161996 18.1633527,19.558469 Z" id="Combined-Shape" fill="#000000" fill-rule="nonzero"></path>
            </g>
        </g>
    </g>
</svg>