<?xml version="1.0" encoding="UTF-8"?>
<svg width="24px" height="24px" viewBox="0 0 24 24" version="1.1" xmlns="http://www.w3.org/2000/svg" xmlns:xlink="http://www.w3.org/1999/xlink">
    <!-- Generator: Sketch 51 (57462) - http://www.bohemiancoding.com/sketch -->
    <title>105 logo - vkontakte</title>
    <desc>Created with Sketch.</desc>
    <defs></defs>
    <g id="Page-1" stroke="none" stroke-width="1" fill="none" fill-rule="evenodd">
        <g id="DA-iconset-alpha" transform="translate(-120.000000, -312.000000)">
            <g id="icons/logo/vkontakte" transform="translate(120.000000, 312.000000)">
                <polygon id="bounds" points="0 0 24 0 24 24 0 24"></polygon>
                <path d="M21.1,7.74 C21.23,7.32 21.1,7 20.48,7 L18.46,7 C17.94,7 17.71,7.27 17.58,7.57 C17.58,7.57 16.55,10.08 15.09,11.72 C14.61,12.19 14.4,12.34 14.14,12.34 C14.01,12.34 13.8,12.19 13.8,11.76 L13.8,7.74 C13.8,7.23 13.68,7 13.25,7 L10.06,7 C9.74,7 9.55,7.24 9.55,7.47 C9.55,7.95 10.3,8.07 10.35,9.44 L10.35,12.42 C10.35,13.08 10.23,13.2 9.98,13.2 C9.3,13.2 7.62,10.67 6.63,7.79 C6.43,7.23 6.24,7 5.72,7 L3.69,7 C3.12,7 3,7.27 3,7.57 C3,8.11 3.69,10.77 6.2,14.29 C7.87,16.7 10.23,18 12.38,18 C13.67,18 13.83,17.71 13.83,17.21 L13.83,15.39 C13.83,14.82 13.95,14.7 14.36,14.7 C14.66,14.7 15.17,14.85 16.37,16 C17.75,17.38 17.97,18 18.75,18 L20.77,18 C21.35,18 21.64,17.71 21.48,17.14 C21.3,16.57 20.64,15.74 19.77,14.76 C19.3,14.21 18.59,13.61 18.37,13.3 C18.07,12.92 18.16,12.75 18.37,12.4 C18.37,12.4 20.84,8.93 21.1,7.74 Z" id="Shape" fill="#000000" fill-rule="nonzero"></path>
            </g>
        </g>
    </g>
</svg>