<?xml version="1.0" encoding="UTF-8"?>
<svg width="24px" height="24px" viewBox="0 0 24 24" version="1.1" xmlns="http://www.w3.org/2000/svg" xmlns:xlink="http://www.w3.org/1999/xlink">
    <!-- Generator: Sketch 51 (57462) - http://www.bohemiancoding.com/sketch -->
    <title>138 navigation - filled close</title>
    <desc>Created with Sketch.</desc>
    <defs></defs>
    <g id="Page-1" stroke="none" stroke-width="1" fill="none" fill-rule="evenodd">
        <g id="DA-iconset-alpha" transform="translate(-1512.000000, -360.000000)">
            <g id="icons/navigation/cancel" transform="translate(1512.000000, 360.000000)">
                <polygon id="bounds" points="0 0 24 0 24 24 0 24"></polygon>
                <path d="M12,2 C17.53,2 22,6.47 22,12 C22,17.53 17.53,22 12,22 C6.47,22 2,17.53 2,12 C2,6.47 6.47,2 12,2 Z M12,10.5857864 L8.70710678,7.29289322 L7.29289322,8.70710678 L10.5857864,12 L7.29289322,15.2928932 L8.70710678,16.7071068 L12,13.4142136 L15.2928932,16.7071068 L16.7071068,15.2928932 L13.4142136,12 L16.7071068,8.70710678 L15.2928932,7.29289322 L12,10.5857864 Z" id="Combined-Shape" fill="#000000" fill-rule="nonzero"></path>
            </g>
        </g>
    </g>
</svg>