<?xml version="1.0" encoding="UTF-8"?>
<svg width="24px" height="24px" viewBox="0 0 24 24" version="1.1" xmlns="http://www.w3.org/2000/svg" xmlns:xlink="http://www.w3.org/1999/xlink">
    <!-- Generator: Sketch 51 (57462) - http://www.bohemiancoding.com/sketch -->
    <title>152 gambling - crown</title>
    <desc>Created with Sketch.</desc>
    <defs></defs>
    <g id="Page-1" stroke="none" stroke-width="1" fill="none" fill-rule="evenodd">
        <g id="DA-iconset-alpha" transform="translate(-216.000000, -504.000000)">
            <g id="icons/gambling/crown" transform="translate(216.000000, 504.000000)">
                <rect id="bounding-box" fill="#DBDBDB" opacity="0" x="0" y="0" width="24" height="24"></rect>
                <path d="M6,20 L18,20 L18,22 L6,22 L6,20 Z M11,14.8292943 L11,7 L12,8 L13,7 L13,14.8292943 C14.1651924,14.4174579 15,13.3062188 15,12 L15,7 L16.5,7 C19.5375661,7 22,9.46243388 22,12.5 C22,15.5375661 19.5375661,18 16.5,18 L7.5,18 C4.46243388,18 2,15.5375661 2,12.5 C2,9.46243388 4.46243388,7 7.5,7 L9,7 L9,12 C9,13.3062188 9.83480763,14.4174579 11,14.8292943 Z M7,9 C5.8954305,9 5,9.8954305 5,11 L5,12 C5,13.1045695 5.8954305,14 7,14 L7,9 Z M17,9 L17,14 C18.1045695,14 19,13.1045695 19,12 L19,11 C19,9.8954305 18.1045695,9 17,9 Z M12,2 L14,4 L12,6 L10,4 L12,2 Z" id="Combined-Shape" fill="#000000"></path>
            </g>
        </g>
    </g>
</svg>