<?xml version="1.0" encoding="UTF-8"?>
<svg width="24px" height="24px" viewBox="0 0 24 24" version="1.1" xmlns="http://www.w3.org/2000/svg" xmlns:xlink="http://www.w3.org/1999/xlink">
    <!-- Generator: Sketch 51 (57462) - http://www.bohemiancoding.com/sketch -->
    <title>155 gambling - suit clubs</title>
    <desc>Created with Sketch.</desc>
    <defs></defs>
    <g id="Page-1" stroke="none" stroke-width="1" fill="none" fill-rule="evenodd">
        <g id="DA-iconset-alpha" transform="translate(-120.000000, -504.000000)">
            <g id="icons/gambling/clubs_poker" transform="translate(120.000000, 504.000000)">
                <rect id="bounding-box" fill="#DBDBDB" opacity="0" x="0" y="0" width="24" height="24"></rect>
                <path d="M12,17 L15,21 L9,21 L12,17 Z M6,18.5 C3.790861,18.5 2,16.709139 2,14.5 C2,12.290861 3.790861,10.5 6,10.5 C7.47275933,10.5 9.47275933,11.8333333 12,14.5 C9.47275933,17.1666667 7.47275933,18.5 6,18.5 Z M18,18.5 C16.5272407,18.5 14.5272407,17.1666667 12,14.5 C14.5272407,11.8333333 16.5272407,10.5 18,10.5 C20.209139,10.5 22,12.290861 22,14.5 C22,16.709139 20.209139,18.5 18,18.5 Z M12,12 C9.33333333,9.47275933 8,7.47275933 8,6 C8,3.790861 9.790861,2 12,2 C14.209139,2 16,3.790861 16,6 C16,7.47275933 14.6666667,9.47275933 12,12 Z" id="Combined-Shape" fill="#000000"></path>
            </g>
        </g>
    </g>
</svg>