<?xml version="1.0" encoding="UTF-8"?>
<svg width="24px" height="24px" viewBox="0 0 24 24" version="1.1" xmlns="http://www.w3.org/2000/svg" xmlns:xlink="http://www.w3.org/1999/xlink">
    <!-- Generator: Sketch 51 (57462) - http://www.bohemiancoding.com/sketch -->
    <title>156 gambling - suit dice</title>
    <desc>Created with Sketch.</desc>
    <defs></defs>
    <g id="Page-1" stroke="none" stroke-width="1" fill="none" fill-rule="evenodd">
        <g id="DA-iconset-alpha" transform="translate(-264.000000, -504.000000)" fill="#000000">
            <g id="icons/gambling/dice" transform="translate(264.000000, 504.000000)">
                <rect id="bounding-box" opacity="0" x="0" y="0" width="24" height="24"></rect>
                <path d="M18.3933583,10 L20,10 C21.1045695,10 22,10.8954305 22,12 L22,20 C22,21.1045695 21.1045695,22 20,22 L12,22 C10.8954305,22 10,21.1045695 10,20 L10,18.8206053 C11.6771906,19.2216399 13.486708,18.4985676 14.3929727,16.9288711 L18.3929727,10.0006679 L18.3933583,10 Z M9.00033395,2.26828314 L15.9285372,6.26828314 C16.8851224,6.82056789 17.2128727,8.0437487 16.660588,9.00033395 L12.660588,15.9285372 C12.1083032,16.8851224 10.8851224,17.2128727 9.92853718,16.660588 L3.00033395,12.660588 C2.0437487,12.1083032 1.71599839,10.8851224 2.26828314,9.92853718 L6.26828314,3.00033395 C6.82056789,2.0437487 8.0437487,1.71599839 9.00033395,2.26828314 Z M7.86635935,6.23238476 C8.34465198,6.50852713 8.95624238,6.34465198 9.23238476,5.86635935 C9.50852713,5.38806673 9.34465198,4.77647633 8.86635935,4.50033395 C8.38806673,4.22419158 7.77647633,4.38806673 7.50033395,4.86635935 C7.22419158,5.34465198 7.38806673,5.95624238 7.86635935,6.23238476 Z M13.0625118,9.23238476 C13.5408044,9.50852713 14.1523948,9.34465198 14.4285372,8.86635935 C14.7046796,8.38806673 14.5408044,7.77647633 14.0625118,7.50033395 C13.5842192,7.22419158 12.9726287,7.38806673 12.6964864,7.86635935 C12.420344,8.34465198 12.5842192,8.95624238 13.0625118,9.23238476 Z M8.96443557,10.330461 C9.44272819,10.6066033 10.0543186,10.4427282 10.330461,9.96443557 C10.6066033,9.48614294 10.4427282,8.87455254 9.96443557,8.59841016 C9.48614294,8.32226779 8.87455254,8.48614294 8.59841016,8.96443557 C8.32226779,9.44272819 8.48614294,10.0543186 8.96443557,10.330461 Z M4.86635935,11.4285372 C5.34465198,11.7046796 5.95624238,11.5408044 6.23238476,11.0625118 C6.50852713,10.5842192 6.34465198,9.97262875 5.86635935,9.69648637 C5.38806673,9.420344 4.77647633,9.58421915 4.50033395,10.0625118 C4.22419158,10.5408044 4.38806673,11.1523948 4.86635935,11.4285372 Z M10.0625118,14.4285372 C10.5408044,14.7046796 11.1523948,14.5408044 11.4285372,14.0625118 C11.7046796,13.5842192 11.5408044,12.9726287 11.0625118,12.6964864 C10.5842192,12.420344 9.97262875,12.5842192 9.69648637,13.0625118 C9.420344,13.5408044 9.58421915,14.1523948 10.0625118,14.4285372 Z" id="Combined-Shape"></path>
            </g>
        </g>
    </g>
</svg>