<?xml version="1.0" encoding="UTF-8"?>
<svg width="24px" height="24px" viewBox="0 0 24 24" version="1.1" xmlns="http://www.w3.org/2000/svg" xmlns:xlink="http://www.w3.org/1999/xlink">
    <!-- Generator: Sketch 51 (57462) - http://www.bohemiancoding.com/sketch -->
    <title>158 finance - curency sign</title>
    <desc>Created with Sketch.</desc>
    <defs></defs>
    <g id="Page-1" stroke="none" stroke-width="1" fill="none" fill-rule="evenodd">
        <g id="DA-iconset-alpha" transform="translate(-24.000000, -600.000000)">
            <g id="icons/finance/currency/sign" transform="translate(24.000000, 600.000000)">
                <polygon id="bounds" points="0 0 24 0 24 24 0 24"></polygon>
                <path d="M12,19 C15.8659932,19 19,15.8659932 19,12 C19,8.13400675 15.8659932,5 12,5 C8.13400675,5 5,8.13400675 5,12 C5,15.8659932 8.13400675,19 12,19 Z M19.0318994,6.38231419 C20.2635271,7.92198502 21,9.87498628 21,12 C21,14.1250137 20.2635271,16.078015 19.0318994,17.6176858 L21.4142136,20 L20,21.4142136 L17.6176858,19.0318994 C16.078015,20.2635271 14.1250137,21 12,21 C9.87498628,21 7.92198502,20.2635271 6.38231419,19.0318994 L4,21.4142136 L2.58578644,20 L4.96810063,17.6176858 C3.73647287,16.078015 3,14.1250137 3,12 C3,9.87498628 3.73647287,7.92198502 4.96810063,6.38231419 L2.58578644,4 L4,2.58578644 L6.38231419,4.96810063 C7.92198502,3.73647287 9.87498628,3 12,3 C14.1250137,3 16.078015,3.73647287 17.6176858,4.96810063 L20,2.58578644 L21.4142136,4 L19.0318994,6.38231419 Z" id="Combined-Shape" fill="#000000" fill-rule="evenodd"></path>
            </g>
        </g>
    </g>
</svg>