<?xml version="1.0" encoding="UTF-8"?>
<svg width="24px" height="24px" viewBox="0 0 24 24" version="1.1" xmlns="http://www.w3.org/2000/svg" xmlns:xlink="http://www.w3.org/1999/xlink">
    <!-- Generator: Sketch 51 (57462) - http://www.bohemiancoding.com/sketch -->
    <title>162 finance - curency gbr</title>
    <desc>Created with Sketch.</desc>
    <defs></defs>
    <g id="Page-1" stroke="none" stroke-width="1" fill="none" fill-rule="evenodd">
        <g id="DA-iconset-alpha" transform="translate(-216.000000, -600.000000)">
            <g id="icons/finance/currency/gbp" transform="translate(216.000000, 600.000000)">
                <rect id="bounds" x="0" y="0" width="24" height="24"></rect>
                <path d="M6,21 L6,19.75 C6.94,19.29 7.74,18.57 8.31,17.7 C8.88,16.83 9.17,15.85 9.18,14.75 L9.16,13.77 L9.07,13 L6.5,13 L6.5,11 L8.9,11 C8.75,10.17 8.66,9.31 8.63,8.25 C8.66,6.61 9.14,5.33 10.08,4.41 C11,3.5 12.27,3 13.82,3 C14.53,3 15.14,3.07 15.63,3.2 C16.13,3.32 16.5,3.47 16.81,3.65 L16.26,5.39 C16,5.25 15.69,5.12 15.29,5 C14.88,4.9 14.39,4.85 13.82,4.84 C12.75,4.86 12,5.19 11.5,5.83 C11,6.46 10.79,7.28 10.8,8.28 L10.9,9.77 L11.1,11 L15,11 L15,13 L11.29,13 C11.38,14 11.34,15 11.15,15.96 C10.85,17.16 10.24,18.18 9.33,19 L17.5,19 L17.5,21 L6,21 Z" id="Shape" fill="#000000" fill-rule="nonzero"></path>
            </g>
        </g>
    </g>
</svg>