<?xml version="1.0" encoding="UTF-8"?>
<svg width="24px" height="24px" viewBox="0 0 24 24" version="1.1" xmlns="http://www.w3.org/2000/svg" xmlns:xlink="http://www.w3.org/1999/xlink">
    <!-- Generator: Sketch 51 (57462) - http://www.bohemiancoding.com/sketch -->
    <title>163 finance - curency jpy</title>
    <desc>Created with Sketch.</desc>
    <defs></defs>
    <g id="Page-1" stroke="none" stroke-width="1" fill="none" fill-rule="evenodd">
        <g id="DA-iconset-alpha" transform="translate(-264.000000, -600.000000)">
            <g id="icons/finance/currency/jpy" transform="translate(264.000000, 600.000000)">
                <polygon id="bounds" points="0 0 24 0 24 24 0 24"></polygon>
                <polygon id="Shape" fill="#000000" fill-rule="nonzero" points="11.23 21 11.23 16 6.23 16 6.23 14 11.23 14 11.23 13.71 10.39 12 6.23 12 6.23 10 9.42 10 6 3 8.23 3 12.23 11.2 16.23 3 18.46 3 15.04 10 18.23 10 18.23 12 14.07 12 13.23 13.71 13.23 14 18.23 14 18.23 16 13.23 16 13.23 21"></polygon>
            </g>
        </g>
    </g>
</svg>