<?xml version="1.0" encoding="UTF-8"?>
<svg width="24px" height="24px" viewBox="0 0 24 24" version="1.1" xmlns="http://www.w3.org/2000/svg" xmlns:xlink="http://www.w3.org/1999/xlink">
    <!-- Generator: Sketch 51 (57462) - http://www.bohemiancoding.com/sketch -->
    <title>164 finance - curency rub</title>
    <desc>Created with Sketch.</desc>
    <defs></defs>
    <g id="Page-1" stroke="none" stroke-width="1" fill="none" fill-rule="evenodd">
        <g id="DA-iconset-alpha" transform="translate(-312.000000, -600.000000)">
            <g id="icons/finance/currency/rub" transform="translate(312.000000, 600.000000)">
                <rect id="bounds" x="0" y="0" width="24" height="24"></rect>
                <path d="M5,10 L6,10 L6,3 L13.5,3 C16,3 18,5 18,7.5 C18,10 16,12 13.5,12 L8,12 L8,14 L14,14 L14,16 L8,16 L8,21 L6,21 L6,16 L5,16 L5,14 L6,14 L6,12 L5,12 L5,10 Z M13.5,5 L8,5 L8,10 L13.5,10 C14.8807119,10 16,8.88071187 16,7.5 C16,6.11928813 14.8807119,5 13.5,5 Z" id="Shape" fill="#000000" fill-rule="nonzero"></path>
            </g>
        </g>
    </g>
</svg>