<?xml version="1.0" encoding="UTF-8"?>
<svg width="24px" height="24px" viewBox="0 0 24 24" version="1.1" xmlns="http://www.w3.org/2000/svg" xmlns:xlink="http://www.w3.org/1999/xlink">
    <!-- Generator: Sketch 51 (57462) - http://www.bohemiancoding.com/sketch -->
    <title>165 finance - curency ind</title>
    <desc>Created with Sketch.</desc>
    <defs></defs>
    <g id="Page-1" stroke="none" stroke-width="1" fill="none" fill-rule="evenodd">
        <g id="DA-iconset-alpha" transform="translate(-360.000000, -600.000000)">
            <g id="icons/finance/currency/ind" transform="translate(360.000000, 600.000000)">
                <rect id="bounds" x="0" y="0" width="24" height="24"></rect>
                <path d="M8,3 L18,3 L17,5 L13.74,5 C14.22,5.58 14.58,6.26 14.79,7 L18,7 L17,9 L15,9 C14.75,11.57 12.74,13.63 10.2,13.96 L10.2,14 L9.5,14 L15.5,21 L13,21 L7,14 L7,12 L9.5,12 C11.26,12 12.72,10.7 12.96,9 L7,9 L8,7 L12.66,7 C12.1,5.82 10.9,5 9.5,5 L7,5 L8,3 Z" id="Shape" fill="#000000" fill-rule="nonzero"></path>
            </g>
        </g>
    </g>
</svg>