<?xml version="1.0" encoding="UTF-8"?>
<svg width="24px" height="24px" viewBox="0 0 24 24" version="1.1" xmlns="http://www.w3.org/2000/svg" xmlns:xlink="http://www.w3.org/1999/xlink">
    <!-- Generator: Sketch 51 (57462) - http://www.bohemiancoding.com/sketch -->
    <title>167 finance - curency thb</title>
    <desc>Created with Sketch.</desc>
    <defs></defs>
    <g id="Page-1" stroke="none" stroke-width="1" fill="none" fill-rule="evenodd">
        <g id="DA-iconset-alpha" transform="translate(-456.000000, -600.000000)">
            <g id="icons/finance/currency/thb" transform="translate(456.000000, 600.000000)">
                <rect id="bounds" x="0" y="0" width="24" height="24"></rect>
                <path d="M13,20 L13,22 L11,22 L11,20 L7,20 L7,4.03 L11,4.03 L11,2 L13,2 L13,4.03 L14,4.03 C16.25,4.28 18,6.18 18,8.5 C18,9.8 17.45,11 16.56,11.8 C17.73,12.61 18.5,13.97 18.5,15.5 C18.5,18 16.5,20 14,20 L13,20 Z M11,13 L9,13 L9,18 L11,18 L11,13 Z M13,18 L14,18 C15.3807119,18 16.5,16.8807119 16.5,15.5 C16.5,14.1192881 15.3807119,13 14,13 L13,13 L13,18 Z M11,6 L9,6 L9,11 L11,11 L11,6 Z M13,11 L13.5,11 C14.8807119,11 16,9.88071187 16,8.5 C16,7.11928813 14.8807119,6 13.5,6 L13,6 L13,11 Z" id="Shape" fill="#000000" fill-rule="nonzero"></path>
            </g>
        </g>
    </g>
</svg>