<?xml version="1.0" encoding="UTF-8"?>
<svg width="24px" height="24px" viewBox="0 0 24 24" version="1.1" xmlns="http://www.w3.org/2000/svg" xmlns:xlink="http://www.w3.org/1999/xlink">
    <!-- Generator: Sketch 51 (57462) - http://www.bohemiancoding.com/sketch -->
    <title>168 finance - curency btc</title>
    <desc>Created with Sketch.</desc>
    <defs></defs>
    <g id="Page-1" stroke="none" stroke-width="1" fill="none" fill-rule="evenodd">
        <g id="DA-iconset-alpha" transform="translate(-504.000000, -600.000000)">
            <g id="icons/finance/currency/btc" transform="translate(504.000000, 600.000000)">
                <rect id="bounds" x="0" y="0" width="24" height="24"></rect>
                <path d="M9,4 L9,2 L11,2 L11,4 L13,4 L13,2 L15,2 L15,4.03 C17.25,4.28 19,6.18 19,8.5 C19,9.8 18.45,11 17.56,11.8 C18.73,12.61 19.5,13.97 19.5,15.5 C19.5,18 17.5,20 15,20 L15,22 L13,22 L13,20 L11,20 L11,22 L9,22 L9,20 L7,20 L7.5,18 L9,18 L9,6 L7,6 L7,4 L9,4 Z M11,18 L15,18 C16.3807119,18 17.5,16.8807119 17.5,15.5 C17.5,14.1192881 16.3807119,13 15,13 L11,13 L11,18 Z M11,6 L11,11 L14.5,11 C15.8807119,11 17,9.88071187 17,8.5 C17,7.11928813 15.8807119,6 14.5,6 L11,6 Z" id="Shape" fill="#000000" fill-rule="nonzero"></path>
            </g>
        </g>
    </g>
</svg>