<?xml version="1.0" encoding="UTF-8"?>
<svg width="24px" height="24px" viewBox="0 0 24 24" version="1.1" xmlns="http://www.w3.org/2000/svg" xmlns:xlink="http://www.w3.org/1999/xlink">
    <!-- Generator: Sketch 51 (57462) - http://www.bohemiancoding.com/sketch -->
    <title>171 finance - curency xrp</title>
    <desc>Created with Sketch.</desc>
    <defs></defs>
    <g id="Page-1" stroke="none" stroke-width="1" fill="none" fill-rule="evenodd">
        <g id="DA-iconset-alpha" transform="translate(-648.000000, -600.000000)">
            <g id="icons/finance/currency/xrp" transform="translate(648.000000, 600.000000)">
                <rect id="bounds" x="0" y="0" width="24" height="24"></rect>
                <path d="M19.3382872,14.2724525 C18.6664329,13.9038847 17.9354483,13.7331497 17.2155285,13.7388173 L17.2216363,13.7353636 C16.2339484,13.7466987 15.4237399,12.9782145 15.412144,12.0191589 C15.4007252,11.0728553 16.1703037,10.2952499 17.1386946,10.2629271 L17.1386946,10.2624843 L17.1369242,10.2615988 C17.8695021,10.2580566 18.6106663,10.0716473 19.2858843,9.68182622 C21.3049881,8.51599365 21.9687872,5.9813594 20.7684783,4.02047595 C19.5679038,2.05950394 16.9580286,1.41490878 14.9389249,2.58074135 C12.9198212,3.74648537 12.2561105,6.28120817 13.456508,8.24209162 C13.9564597,9.05919281 13.6801053,10.1152166 12.8388269,10.6010318 C12.0094984,11.0798512 10.9416129,10.8254314 10.4321898,10.0357824 L10.4317472,10.0359595 L10.4317472,10.0381734 C10.0646616,9.4226244 9.52983368,8.89084889 8.8461179,8.51572798 C6.80107831,7.39355325 4.2062512,8.09384979 3.0508211,10.0802372 C1.89539099,12.0661819 2.61681559,14.5861159 4.6619437,15.7082021 C6.70716033,16.8303768 9.30163336,16.1299917 10.457152,14.1436928 C10.4641449,14.1317379 10.4703412,14.1193401 10.4771571,14.1072965 L10.4771571,14.1102189 L10.4775997,14.110396 C10.968434,13.3086149 12.0315395,13.0308164 12.8717557,13.4918361 C13.7240104,13.9594975 14.0243532,15.0093224 13.5429904,15.8367846 C12.3873833,17.823172 13.1088964,20.3429289 15.153936,21.4649266 C17.1990641,22.5871898 19.7938027,21.8867162 20.9492328,19.9004173 C22.1044858,17.9142956 21.3833268,15.3946272 19.3382872,14.2724525 Z" id="Shape" fill="#000000" fill-rule="nonzero"></path>
            </g>
        </g>
    </g>
</svg>