<?xml version="1.0" encoding="UTF-8"?>
<svg width="24px" height="24px" viewBox="0 0 24 24" version="1.1" xmlns="http://www.w3.org/2000/svg" xmlns:xlink="http://www.w3.org/1999/xlink">
    <!-- Generator: Sketch 51 (57462) - http://www.bohemiancoding.com/sketch -->
    <title>173 finance - curency btc round filled</title>
    <desc>Created with Sketch.</desc>
    <defs></defs>
    <g id="Page-1" stroke="none" stroke-width="1" fill="none" fill-rule="evenodd">
        <g id="DA-iconset-alpha" transform="translate(-744.000000, -600.000000)">
            <g id="icons/finance/currency/btc_round" transform="translate(744.000000, 600.000000)">
                <rect id="bounds" x="0" y="0" width="24" height="24"></rect>
                <path d="M12,22 C6.4771525,22 2,17.5228475 2,12 C2,6.4771525 6.4771525,2 12,2 C17.5228475,2 22,6.4771525 22,12 C22,17.5228475 17.5228475,22 12,22 Z M9.4,6.4 L8,6.4 L8,7.8 L9.4,7.8 L9.4,16.2 L8.35,16.2 L8,17.6 L9.4,17.6 L9.4,19 L10.8,19 L10.8,17.6 L12.2,17.6 L12.2,19 L13.6,19 L13.6,17.6 C15.35,17.6 16.75,16.2 16.75,14.45 C16.75,13.379 16.211,12.427 15.392,11.86 C16.015,11.3 16.4,10.46 16.4,9.55 C16.4,7.926 15.175,6.596 13.6,6.421 L13.6,5 L12.2,5 L12.2,6.4 L10.8,6.4 L10.8,5 L9.4,5 L9.4,6.4 Z M10.8,16.2 L10.8,12.7 L13.6,12.7 C14.5664983,12.7 15.35,13.4835017 15.35,14.45 C15.35,15.4164983 14.5664983,16.2 13.6,16.2 L10.8,16.2 Z M10.8,7.8 L13.25,7.8 C14.2164983,7.8 15,8.58350169 15,9.55 C15,10.5164983 14.2164983,11.3 13.25,11.3 L10.8,11.3 L10.8,7.8 Z" id="Combined-Shape" fill="#000000" fill-rule="evenodd"></path>
            </g>
        </g>
    </g>
</svg>