<?xml version="1.0" encoding="UTF-8"?>
<svg width="24px" height="24px" viewBox="0 0 24 24" version="1.1" xmlns="http://www.w3.org/2000/svg" xmlns:xlink="http://www.w3.org/1999/xlink">
    <!-- Generator: Sketch 51 (57462) - http://www.bohemiancoding.com/sketch -->
    <title>176 finance - curency xrp round filled</title>
    <desc>Created with Sketch.</desc>
    <defs></defs>
    <g id="Page-1" stroke="none" stroke-width="1" fill="none" fill-rule="evenodd">
        <g id="DA-iconset-alpha" transform="translate(-888.000000, -600.000000)">
            <g id="icons/finance/currency/xrp_round" transform="translate(888.000000, 600.000000)">
                <rect id="bounds" x="0" y="0" width="24" height="24"></rect>
                <path d="M12,22 C6.4771525,22 2,17.5228475 2,12 C2,6.4771525 6.4771525,2 12,2 C17.5228475,2 22,6.4771525 22,12 C22,17.5228475 17.5228475,22 12,22 Z M15.7346833,13.4510234 C15.3103542,13.2182437 14.8486798,13.1104111 14.3939936,13.1139906 L14.3978511,13.1118094 C13.7740483,13.1189684 13.2623376,12.6336099 13.2550139,12.0278906 C13.247802,11.4302252 13.7338516,10.9391059 14.3454669,10.9186916 L14.3454669,10.9184119 L14.3443488,10.9178526 C14.8070296,10.9156154 15.2751333,10.7978833 15.7015867,10.5516805 C16.9768101,9.81536517 17.3960517,8.21454354 16.6379619,6.97609084 C15.8797043,5.7375822 14.2313621,5.33046947 12.9561387,6.06678478 C11.6809153,6.80304415 11.2617296,8.40392171 12.0198754,9.64237442 C12.3356343,10.1584383 12.1610948,10.8254007 11.629761,11.1322314 C11.1059746,11.4346436 10.4315206,11.2739574 10.1097797,10.7752317 L10.1095001,10.7753436 L10.1095001,10.7767418 C9.87765659,10.3879741 9.53987054,10.0521159 9.10805005,9.81519738 C7.81644609,9.10645545 6.17760793,9.548748 5.44786259,10.8033085 C4.71811726,12.0575893 5.17375386,13.6491266 6.46541371,14.3578126 C7.75712948,15.0665545 9.39574402,14.6242061 10.1255453,13.3697015 C10.1299619,13.362151 10.1338753,13.3543208 10.1381801,13.3467144 L10.1381801,13.3485601 L10.1384596,13.3486719 C10.4484602,12.8422839 11.1198953,12.6668322 11.6505581,12.9580025 C12.1888243,13.2533676 12.3785145,13.9164149 12.0744958,14.4390226 C11.3446387,15.6935831 11.8003312,17.2850085 13.0919352,17.9936386 C14.383595,18.7024365 16.0223773,18.260032 16.7521226,17.0055275 C17.4817561,15.7511348 17.0262872,14.1597653 15.7346833,13.4510234 Z" id="Combined-Shape" fill="#000000" fill-rule="evenodd"></path>
            </g>
        </g>
    </g>
</svg>