<?xml version="1.0" encoding="UTF-8"?>
<svg width="24px" height="24px" viewBox="0 0 24 24" version="1.1" xmlns="http://www.w3.org/2000/svg" xmlns:xlink="http://www.w3.org/1999/xlink">
    <!-- Generator: Sketch 51 (57462) - http://www.bohemiancoding.com/sketch -->
    <title>177 finance - curency eos round filled</title>
    <desc>Created with Sketch.</desc>
    <defs></defs>
    <g id="Page-1" stroke="none" stroke-width="1" fill="none" fill-rule="evenodd">
        <g id="DA-iconset-alpha" transform="translate(-936.000000, -600.000000)">
            <g id="icons/finance/currency/eos_round" transform="translate(936.000000, 600.000000)">
                <rect id="bounds" x="0" y="0" width="24" height="24"></rect>
                <path d="M12,22 C6.4771525,22 2,17.5228475 2,12 C2,6.4771525 6.4771525,2 12,2 C17.5228475,2 22,6.4771525 22,12 C22,17.5228475 17.5228475,22 12,22 Z M8.03827387,9.82457388 L6,16.8 L11.0060673,19.4699026 L8.03827387,9.82457388 Z M8.54790432,8.08050522 L12,19.2998162 L15.4520957,8.08050522 L15.4285714,8 L12,4 L8.57142857,8 L8.54790432,8.08050522 Z M15.9617261,9.82457388 L12.9939327,19.4699026 L18,16.8 L15.9617261,9.82457388 Z" id="Combined-Shape" fill="#000000" fill-rule="evenodd"></path>
            </g>
        </g>
    </g>
</svg>