<?xml version="1.0" encoding="UTF-8"?>
<svg width="24px" height="24px" viewBox="0 0 24 24" version="1.1" xmlns="http://www.w3.org/2000/svg" xmlns:xlink="http://www.w3.org/1999/xlink">
    <!-- Generator: Sketch 51 (57462) - http://www.bohemiancoding.com/sketch -->
    <title>18 actions - group</title>
    <desc>Created with Sketch.</desc>
    <defs></defs>
    <g id="Page-1" stroke="none" stroke-width="1" fill="none" fill-rule="evenodd">
        <g id="DA-iconset-alpha" transform="translate(-840.000000, -24.000000)">
            <g id="icons/action/group" transform="translate(840.000000, 24.000000)">
                <polygon id="bounds" points="0 0 24 0 24 24 0 24"></polygon>
                <path d="M17.0050083,13 C15.3422371,13 14,11.66 14,10 C14,8.34 15.3422371,7 17.0050083,7 C18.6677796,7 20,8.34 20,10 C20,11.66 18.6677796,13 17.0050083,13 Z M9.0066778,12 C6.78964942,12 5,10.2133333 5,8 C5,5.78666667 6.78964942,4 9.0066778,4 C11.2237062,4 13,5.78666667 13,8 C13,10.2133333 11.2237062,12 9.0066778,12 Z M8.98328291,14 C13.7541819,14 16.2154065,17 16.8181828,18.5 C16.9679661,18.8727333 17.0258464,19.3727333 16.9894395,20 L1.00544349,20 C0.982943799,19.2911476 1.03019291,18.7911476 1.14719083,18.5 C1.74996715,17 4.20866349,14 8.98328291,14 Z M22.6499996,18.5 C22.7624495,18.8106111 22.8365576,19.3106111 22.8723239,20 L19.0020602,20 C19.0353577,19.1771723 18.9581838,18.4626997 18.7375986,17.8359866 C18.3814428,16.8240985 17.5,15.5 16.5,15.0000199 C20.0702809,15.0081452 22.1982022,17.2520371 22.6499996,18.5 Z" id="Shape" fill="#000000" fill-rule="evenodd"></path>
            </g>
        </g>
    </g>
</svg>