<?xml version="1.0" encoding="UTF-8"?>
<svg width="24px" height="24px" viewBox="0 0 24 24" version="1.1" xmlns="http://www.w3.org/2000/svg" xmlns:xlink="http://www.w3.org/1999/xlink">
    <!-- Generator: Sketch 51 (57462) - http://www.bohemiancoding.com/sketch -->
    <title>182 finance - chart pie</title>
    <desc>Created with Sketch.</desc>
    <defs></defs>
    <g id="Page-1" stroke="none" stroke-width="1" fill="none" fill-rule="evenodd">
        <g id="DA-iconset-alpha" transform="translate(-216.000000, -648.000000)">
            <g id="icons/finance/chart/pie" transform="translate(216.000000, 648.000000)">
                <rect id="bounds" x="0" y="0" width="24" height="24"></rect>
                <path d="M11,2.04937524 L11,11.9843299 C10.9994131,12.0196631 11.000696,12.0551065 11.0038848,12.0905067 C11.0196092,12.2721809 11.0822772,12.4350923 11.1774215,12.5711816 L16.3789875,20.9927646 C15.0564917,21.637952 13.5705263,22 12,22 C6.4771525,22 2,17.5228475 2,12 C2,6.8146519 5.94667731,2.55109967 11,2.04937524 Z M13,2.04937524 C15.8208934,2.32945059 18.2969387,3.7817704 19.9341074,5.91230601 L13,10.2048487 L13,2.04937524 Z M20.988317,7.6119075 C21.6362879,8.93668654 22,10.4258685 22,12 C22,15.2357314 20.4631881,18.1125211 18.0796561,19.9402774 L13.3757587,12.3244435 L20.988317,7.61190749 Z" id="Combined-Shape" fill="#000000" fill-rule="evenodd"></path>
            </g>
        </g>
    </g>
</svg>