<?xml version="1.0" encoding="UTF-8"?>
<svg width="24px" height="24px" viewBox="0 0 24 24" version="1.1" xmlns="http://www.w3.org/2000/svg" xmlns:xlink="http://www.w3.org/1999/xlink">
    <!-- Generator: Sketch 51 (57462) - http://www.bohemiancoding.com/sketch -->
    <title>184 finance - credit card no</title>
    <desc>Created with Sketch.</desc>
    <defs></defs>
    <g id="Page-1" stroke="none" stroke-width="1" fill="none" fill-rule="evenodd">
        <g id="DA-iconset-alpha" transform="translate(-72.000000, -696.000000)">
            <g id="icons/finance/card/credit_card_no" transform="translate(72.000000, 696.000000)">
                <polygon id="bounds" points="0 0 24 0 24 24 0 24"></polygon>
                <path d="M1,4.26533823 L2.27574751,3 L20.0066445,20.7246985 L18.7408638,22 L16.7475083,20.0073414 L4.05980066,20.0073414 C2.95348837,20.0073414 2.06644518,19.110645 2.06644518,18.0146827 L2.06644518,6.05873099 C2.06644518,5.83953854 2.10631229,5.63030939 2.17607973,5.44100682 L1,4.26533823 Z M20.0066445,8.05138962 L20.0066445,6.05873099 L7.86710963,6.05873099 L5.87375415,4.06607236 L20.0066445,4.06607236 C21.1075444,4.06607236 22,4.95821602 22,6.05873099 L22,18.0146827 C22,18.6124803 21.7408638,19.1405349 21.3222591,19.5091767 L19.8272425,18.0146827 L20.0066445,18.0146827 L20.0066445,12.0367069 L13.8471761,12.0367069 L9.86046512,8.05138962 L20.0066445,8.05138962 Z M4.05980066,8.05138962 L4.78737542,8.05138962 L4.05980066,7.32406922 L4.05980066,8.05138962 Z M4.05980066,12.0367069 L4.05980066,18.0146827 L14.7541528,18.0146827 L8.77408638,12.0367069 L4.05980066,12.0367069 Z" id="Shape" fill="#000000" fill-rule="nonzero"></path>
            </g>
        </g>
    </g>
</svg>