<?xml version="1.0" encoding="UTF-8"?>
<svg width="24px" height="24px" viewBox="0 0 24 24" version="1.1" xmlns="http://www.w3.org/2000/svg" xmlns:xlink="http://www.w3.org/1999/xlink">
    <!-- Generator: Sketch 51 (57462) - http://www.bohemiancoding.com/sketch -->
    <title>189 finance - credit card scan</title>
    <desc>Created with Sketch.</desc>
    <defs></defs>
    <g id="Page-1" stroke="none" stroke-width="1" fill="none" fill-rule="evenodd">
        <g id="DA-iconset-alpha" transform="translate(-312.000000, -696.000000)">
            <g id="icons/finance/card/credit_card_scan" transform="translate(312.000000, 696.000000)">
                <polygon id="bounds" points="0 0 24 0 24 24 0 24"></polygon>
                <path d="M2,4 L6,4 L6,2 L2,2 C0.8954305,2 1.3527075e-16,2.8954305 0,4 L0,8 L2,8 L2,4 Z M22,2 L18,2 L18,4 L22,4 L22,8 L24,8 L24,4 C24,2.8954305 23.1045695,2 22,2 Z M2,16 L0,16 L0,20 C1.3527075e-16,21.1045695 0.8954305,22 2,22 L6,22 L6,20 L2,20 L2,16 Z M22,20 L18,20 L18,22 L22,22 C23.1045695,22 24,21.1045695 24,20 L24,16 L22,16 L22,20 Z M4,8 L4,16 C4,17.1045695 4.8954305,18 6,18 L18,18 C19.1045695,18 20,17.1045695 20,16 L20,8 C20,6.8954305 19.1045695,6 18,6 L6,6 C4.8954305,6 4,6.8954305 4,8 Z M6,16 L6,12 L18,12 L18,16 L6,16 Z M18,8 L18,10 L6,10 L6,8 L18,8 Z" id="Shape" fill="#000000" fill-rule="nonzero"></path>
            </g>
        </g>
    </g>
</svg>