<?xml version="1.0" encoding="UTF-8"?>
<svg width="24px" height="24px" viewBox="0 0 24 24" version="1.1" xmlns="http://www.w3.org/2000/svg" xmlns:xlink="http://www.w3.org/1999/xlink">
    <!-- Generator: Sketch 51 (57462) - http://www.bohemiancoding.com/sketch -->
    <title>191 health care - heartbeat</title>
    <desc>Created with Sketch.</desc>
    <defs></defs>
    <g id="Page-1" stroke="none" stroke-width="1" fill="none" fill-rule="evenodd">
        <g id="DA-iconset-alpha" transform="translate(-24.000000, -744.000000)">
            <g id="icons/healthcare/heartbeat" transform="translate(24.000000, 744.000000)">
                <polygon id="Rectangle" points="0 0 24 0 24 24 0 24"></polygon>
                <path d="M6,14 L7.38196601,14 C7.76073807,14 8.10700119,13.7859976 8.2763932,13.4472136 L9.11111111,11.7777778 L11,16.5 C11.1090346,16.7180692 11.3045886,16.8803646 11.5390166,16.947344 C12.0009077,17.0793129 12.4823262,16.8118581 12.6142951,16.3499671 L14.2432432,10.6486486 L15.2566713,13.3511234 C15.3799816,13.6799509 15.664242,13.915277 16,13.9812509 L16,14 L19.4207457,14 C17.9415226,15.7106521 15.8925934,17.5324896 13.45,19.7051771 L12,21 L10.55,19.7149864 C8.10672876,17.5370422 6.05734026,15.7123506 4.57802291,14 L6,14 Z M7,12 L3.09754663,12 C2.386967,10.8187634 2,9.64600444 2,8.39509537 C2,5.37384196 4.42,3 7.5,3 C9.24,3 10.91,3.79455041 12,5.05013624 C13.09,3.79455041 14.76,3 16.5,3 C19.58,3 22,5.37384196 22,8.39509537 C22,9.64613743 21.6129507,10.8190128 20.9022267,12 L16.6666667,12 L15,8 C14.8909654,7.78193078 14.6954114,7.61963538 14.4609834,7.55265595 C13.9990923,7.42068708 13.5176738,7.68814185 13.3857049,8.15003291 L11.698123,14.0565696 L10,10 L9.89442719,9.78885438 C9.79766349,9.59532698 9.640741,9.43840449 9.4472136,9.34164079 C8.9532351,9.09465154 8.35256206,9.29487588 8.10557281,9.78885438 L7,12 Z" id="Combined-Shape" fill="#000000" fill-rule="nonzero"></path>
            </g>
        </g>
    </g>
</svg>