<?xml version="1.0" encoding="UTF-8"?>
<svg width="24px" height="24px" viewBox="0 0 24 24" version="1.1" xmlns="http://www.w3.org/2000/svg" xmlns:xlink="http://www.w3.org/1999/xlink">
    <!-- Generator: Sketch 51 (57462) - http://www.bohemiancoding.com/sketch -->
    <title>192 health care - heartbeat border</title>
    <desc>Created with Sketch.</desc>
    <defs></defs>
    <g id="Page-1" stroke="none" stroke-width="1" fill="none" fill-rule="evenodd">
        <g id="DA-iconset-alpha" transform="translate(-72.000000, -744.000000)">
            <g id="icons/healthcare/heartbeat_border" transform="translate(72.000000, 744.000000)">
                <polygon id="Rectangle" points="0 0 24 0 24 24 0 24"></polygon>
                <path d="M5.25257646,12 L7,12 L8.10557281,9.78885438 C8.35256206,9.29487588 8.9532351,9.09465154 9.4472136,9.34164079 C9.640741,9.43840449 9.79766349,9.59532698 9.89442719,9.78885438 L10,10 L11.698123,14.0565696 L13.3857049,8.15003291 C13.5176738,7.68814185 13.9990923,7.42068708 14.4609834,7.55265595 C14.6954114,7.61963538 14.8909654,7.78193078 15,8 L16.6666667,12 L18.7474235,12 C19.5554876,10.8144262 20,9.70498878 20,8.58974359 C20,6.53846154 18.5,5 16.5,5 C14.8722331,5 13.3722331,5.68376068 12,7.05128205 C10.6646322,5.68376068 9.16463216,5 7.5,5 C5.5,5 4,6.53846154 4,8.58974359 C4,9.70498878 4.44451243,10.8144262 5.25257646,12 Z M6.86680191,14 C8.18257531,15.4438985 9.89800366,17.0382236 11.9,18.8974359 L12,19 L12.1,18.8974359 C14.1019963,17.0382236 15.8174247,15.4438985 17.1331981,14 L16,14 L16,13.9812509 C15.664242,13.915277 15.3799816,13.6799509 15.2566713,13.3511234 L14.2432432,10.6486486 L12.6142951,16.3499671 C12.4823262,16.8118581 12.0009077,17.0793129 11.5390166,16.947344 C11.3045886,16.8803646 11.1090346,16.7180692 11,16.5 L9.11111111,11.7777778 L8.2763932,13.4472136 C8.10700119,13.7859976 7.76073807,14 7.38196601,14 L6.86680191,14 Z M16.5,3 C19.58,3 22,5.37384196 22,8.39509537 C22,12.1029973 18.6,15.1242507 13.45,19.7051771 L12,21 L10.55,19.7149864 C5.4,15.1242507 2,12.1029973 2,8.39509537 C2,5.37384196 4.42,3 7.5,3 C9.24,3 10.91,3.79455041 12,5.05013624 C13.09,3.79455041 14.76,3 16.5,3 Z" id="Combined-Shape" fill="#000000" fill-rule="nonzero"></path>
            </g>
        </g>
    </g>
</svg>