<?xml version="1.0" encoding="UTF-8"?>
<svg width="24px" height="24px" viewBox="0 0 24 24" version="1.1" xmlns="http://www.w3.org/2000/svg" xmlns:xlink="http://www.w3.org/1999/xlink">
    <!-- Generator: Sketch 51 (57462) - http://www.bohemiancoding.com/sketch -->
    <title>195 sport - sport climbing</title>
    <desc>Created with Sketch.</desc>
    <defs></defs>
    <g id="Page-1" stroke="none" stroke-width="1" fill="none" fill-rule="evenodd">
        <g id="DA-iconset-alpha" transform="translate(-312.000000, -792.000000)" fill="#000000">
            <g id="icons/sport/type/climbing" transform="translate(312.000000, 792.000000)">
                <g id="sport/type/climbing">
                    <rect id="ic-background" opacity="0" x="0" y="0" width="24" height="24"></rect>
                    <path d="M11.5122898,17.5122898 L11.5,17.5 L12.7427921,16.2572079 C12.5049406,16.127936 12.2928302,15.9501349 12.1218755,15.731323 L10.6390491,13.8333916 L8.27501681,15.6803761 L7.04369386,14.1043545 L9.40772612,12.2573701 C10.2781388,11.5773292 11.5350297,11.731656 12.2150706,12.6020687 L13.370585,14.0810597 L14.4641016,10 L12.9702987,10 L10.2975545,6.81474751 L11.3617323,4.97153754 L13.902914,8 L15,8 L16.8935493,8 C17.9981188,8 18.8935493,8.8954305 18.8935493,10 C18.8935493,10.1747826 18.870638,10.3488111 18.8254009,10.5176381 L17.6196295,15.0176381 C17.3853436,15.8920051 16.5929892,16.5 15.6877779,16.5 L15.3284271,16.5 L13.2540927,18.5743345 L11.9611844,22.1265707 L10.0817992,21.4425305 L11.5122898,17.5122898 Z M17.5,7 C16.3954305,7 15.5,6.1045695 15.5,5 C15.5,3.8954305 16.3954305,3 17.5,3 C18.6045695,3 19.5,3.8954305 19.5,5 C19.5,6.1045695 18.6045695,7 17.5,7 Z M12,2 L8.5,8 L5,10 L2,15 L2,2 L12,2 Z" id="Combined-Shape"></path>
                </g>
            </g>
        </g>
    </g>
</svg>