<?xml version="1.0" encoding="UTF-8"?>
<svg width="24px" height="24px" viewBox="0 0 24 24" version="1.1" xmlns="http://www.w3.org/2000/svg" xmlns:xlink="http://www.w3.org/1999/xlink">
    <!-- Generator: Sketch 51 (57462) - http://www.bohemiancoding.com/sketch -->
    <title>196 sport - sport cricket</title>
    <desc>Created with Sketch.</desc>
    <defs></defs>
    <g id="Page-1" stroke="none" stroke-width="1" fill="none" fill-rule="evenodd">
        <g id="DA-iconset-alpha" transform="translate(-360.000000, -792.000000)" fill="#000000">
            <g id="icons/sport/type/cricket" transform="translate(360.000000, 792.000000)">
                <g id="sport/type/cricket">
                    <rect id="ic-background" opacity="0" x="0" y="0" width="24" height="24"></rect>
                    <path d="M14.4119694,10.946869 L15.5,9.0623448 C15.0217074,8.78620243 14.8578322,8.17461202 15.1339746,7.6963194 L18.1339746,2.50016698 C18.410117,2.02187435 19.0217074,1.8579992 19.5,2.13414157 L20.3660254,2.63414157 C20.844318,2.91028395 21.0081932,3.52187435 20.7320508,4.00016698 L17.7320508,9.1963194 C17.4559084,9.67461202 16.844318,9.83848718 16.3660254,9.5623448 L15.5360281,10.9999423 C15.6914656,10.9994439 15.846144,10.9957216 16,10.9888387 L16,12.9905616 C15.8341103,12.996835 15.6674247,13 15.5,13 C13.835468,13 12.2440027,12.687164 10.781192,12.1170797 L10.0432224,16.3023134 L14,17 L13.0864888,22.1807794 L11.0556356,22.1807794 L11.6830881,18.6223192 L7.23390668,17.8378084 L6.5,22 L2,22 L2,20 L4.82180074,20 L6.76139753,9 L8.94731009,9 C8.96492753,9 8.98249176,9.00022779 9,9.00068058 L9,9 L9.17384173,9 C9.18107534,9.00509391 9.18831537,9.01017932 9.1955618,9.01525621 C9.76417361,9.08565299 10.2588038,9.39472146 10.5761016,9.83911086 C11.7502297,10.4278399 13.0443467,10.812587 14.4119694,10.946869 Z M9,8 C7.8954305,8 7,7.1045695 7,6 C7,4.8954305 7.8954305,4 9,4 C10.1045695,4 11,4.8954305 11,6 C11,7.1045695 10.1045695,8 9,8 Z M21,11 C20.4477153,11 20,10.5522847 20,10 C20,9.44771525 20.4477153,9 21,9 C21.5522847,9 22,9.44771525 22,10 C22,10.5522847 21.5522847,11 21,11 Z" id="Combined-Shape"></path>
                </g>
            </g>
        </g>
    </g>
</svg>