<?xml version="1.0" encoding="UTF-8"?>
<svg width="24px" height="24px" viewBox="0 0 24 24" version="1.1" xmlns="http://www.w3.org/2000/svg" xmlns:xlink="http://www.w3.org/1999/xlink">
    <!-- Generator: Sketch 51 (57462) - http://www.bohemiancoding.com/sketch -->
    <title>197 sport - sport cycling</title>
    <desc>Created with Sketch.</desc>
    <defs></defs>
    <g id="Page-1" stroke="none" stroke-width="1" fill="none" fill-rule="evenodd">
        <g id="DA-iconset-alpha" transform="translate(-408.000000, -792.000000)" fill="#000000">
            <g id="icons/sport/type/cycling-sport" transform="translate(408.000000, 792.000000)">
                <g id="sport/type/cycling-sport">
                    <rect id="ic-background" opacity="0" x="0" y="0" width="24" height="24"></rect>
                    <path d="M6,20.25 C7.24264069,20.25 8.25,19.2426407 8.25,18 C8.25,16.7573593 7.24264069,15.75 6,15.75 C4.75735931,15.75 3.75,16.7573593 3.75,18 C3.75,19.2426407 4.75735931,20.25 6,20.25 Z M6,22 C3.790861,22 2,20.209139 2,18 C2,15.790861 3.790861,14 6,14 C8.209139,14 10,15.790861 10,18 C10,20.209139 8.209139,22 6,22 Z M18,22 C15.790861,22 14,20.209139 14,18 C14,15.790861 15.790861,14 18,14 C20.209139,14 22,15.790861 22,18 C22,20.209139 20.209139,22 18,22 Z M14.7196271,8.33421985 L14.8127677,8.52050101 C14.8867817,8.66852907 14.970649,8.80960572 15.0633441,8.94309727 C15.9318054,10.4220526 17.5389611,11.4149282 19.3780152,11.4149282 L19.3780152,13.4149282 C17.2886618,13.4149282 15.413107,12.4995479 14.1305163,11.0479531 L9.81193509,11.8094355 L13.3686634,13.4679651 L12.3361262,19.3237747 L10.3665107,18.9764784 L11.132558,14.6320079 L7.32160319,12.8549305 C6.73021091,12.5791597 6.31053471,12.0322271 6.19722421,11.3896113 L6.03071889,10.4453127 C5.83891241,9.35752409 6.56524944,8.32020731 7.65303804,8.12840083 L12.5834763,7.25903153 C13.4549814,7.10536167 14.3238657,7.54269698 14.7196271,8.33421985 Z M18,9 C16.8954305,9 16,8.1045695 16,7 C16,5.8954305 16.8954305,5 18,5 C19.1045695,5 20,5.8954305 20,7 C20,8.1045695 19.1045695,9 18,9 Z M18,20.25 C19.2426407,20.25 20.25,19.2426407 20.25,18 C20.25,16.7573593 19.2426407,15.75 18,15.75 C16.7573593,15.75 15.75,16.7573593 15.75,18 C15.75,19.2426407 16.7573593,20.25 18,20.25 Z" id="Combined-Shape" fill-rule="nonzero"></path>
                </g>
            </g>
        </g>
    </g>
</svg>