<?xml version="1.0" encoding="UTF-8"?>
<svg width="24px" height="24px" viewBox="0 0 24 24" version="1.1" xmlns="http://www.w3.org/2000/svg" xmlns:xlink="http://www.w3.org/1999/xlink">
    <!-- Generator: Sketch 51 (57462) - http://www.bohemiancoding.com/sketch -->
    <title>200 sport - sport football</title>
    <desc>Created with Sketch.</desc>
    <defs></defs>
    <g id="Page-1" stroke="none" stroke-width="1" fill="none" fill-rule="evenodd">
        <g id="DA-iconset-alpha" transform="translate(-552.000000, -792.000000)" fill="#000000">
            <g id="icons/sport/type/football" transform="translate(552.000000, 792.000000)">
                <g id="sport/type/football">
                    <rect id="ic-background" opacity="0" x="0" y="0" width="24" height="24"></rect>
                    <path d="M15.6470987,9.18394841 L10.9824374,22 L8.85408184,22 L11.4346825,14.9098581 L10.4949898,14.5678379 L9.29335291,17.8693083 L7.41396766,17.185268 L10.3406859,9.14417561 C9.09531793,9.71406971 8.13172527,10.7777917 7.68802661,12.0739225 L5.80719907,11.3893573 C6.72039471,8.77017792 9.15272972,6.83747036 12.0942633,6.7 C12.6108142,6.67585938 13.1284582,6.70899094 13.6377261,6.7987886 L21.5978538,8.20237389 L20.9032611,10.1107517 L15.6470987,9.18394841 Z M15,6 C13.8954305,6 13,5.1045695 13,4 C13,2.8954305 13.8954305,2 15,2 C16.1045695,2 17,2.8954305 17,4 C17,5.1045695 16.1045695,6 15,6 Z M6,22 C4.8954305,22 4,21.1045695 4,20 C4,18.8954305 4.8954305,18 6,18 C7.1045695,18 8,18.8954305 8,20 C8,21.1045695 7.1045695,22 6,22 Z" id="Combined-Shape"></path>
                </g>
            </g>
        </g>
    </g>
</svg>