<?xml version="1.0" encoding="UTF-8"?>
<svg width="24px" height="24px" viewBox="0 0 24 24" version="1.1" xmlns="http://www.w3.org/2000/svg" xmlns:xlink="http://www.w3.org/1999/xlink">
    <!-- Generator: Sketch 51 (57462) - http://www.bohemiancoding.com/sketch -->
    <title>201 sport - sport hiking</title>
    <desc>Created with Sketch.</desc>
    <defs></defs>
    <g id="Page-1" stroke="none" stroke-width="1" fill="none" fill-rule="evenodd">
        <g id="DA-iconset-alpha" transform="translate(-600.000000, -792.000000)" fill="#000000">
            <g id="icons/sport/type/hiking" transform="translate(600.000000, 792.000000)">
                <g id="hiking">
                    <rect id="ic-background" opacity="0" x="0" y="0" width="24" height="24"></rect>
                    <path d="M14.4535177,9.99295395 L18.5,11.4657531 L17.8159597,13.3451383 L14.1008638,11.992954 L13.5673613,15.0185969 L15,17.5 L15,22 L13,22 L13,18.0358984 L11.5358984,15.5 L10.9439104,15.5 L10.5912564,17.5 L8.59125644,20.9641016 L6.85920563,19.9641016 L8.68287865,16.8054073 L9.49310922,12.2103614 L7.52349372,11.863065 C6.97959941,11.7671618 6.6164309,11.2485034 6.71233414,10.7046091 L7.19828039,7.94867097 C7.39008687,6.86088237 8.42740364,6.13454534 9.51519225,6.32635182 L12.9620194,6.93412044 C14.049808,7.12592692 14.776145,8.1632437 14.5843385,9.25103231 L14.4535177,9.99295395 Z M14,6 C12.8954305,6 12,5.1045695 12,4 C12,2.8954305 12.8954305,2 14,2 C15.1045695,2 16,2.8954305 16,4 C16,5.1045695 15.1045695,6 14,6 Z" id="Combined-Shape"></path>
                </g>
            </g>
        </g>
    </g>
</svg>