<?xml version="1.0" encoding="UTF-8"?>
<svg width="24px" height="24px" viewBox="0 0 24 24" version="1.1" xmlns="http://www.w3.org/2000/svg" xmlns:xlink="http://www.w3.org/1999/xlink">
    <!-- Generator: Sketch 51 (57462) - http://www.bohemiancoding.com/sketch -->
    <title>202 sport - sport yoga</title>
    <desc>Created with Sketch.</desc>
    <defs></defs>
    <g id="Page-1" stroke="none" stroke-width="1" fill="none" fill-rule="evenodd">
        <g id="DA-iconset-alpha" transform="translate(-648.000000, -792.000000)" fill="#000000">
            <g id="icons/sport/type/yoga" transform="translate(648.000000, 792.000000)">
                <g id="sport/type/yoga">
                    <rect id="ic-background" opacity="0" x="0" y="0" width="24" height="24"></rect>
                    <path d="M12,10 C10.8954305,10 10,9.1045695 10,8 C10,6.8954305 10.8954305,6 12,6 C13.1045695,6 14,6.8954305 14,8 C14,9.1045695 13.1045695,10 12,10 Z M14.5,11 L16.8094011,15 L19,15 L19,17 L15.6547005,17 L14,14.1339746 L14,18 L19,18 L19,19.5 C19,20.3284271 15.8659932,21 12,21 C8.13400675,21 5,20.3284271 5,19.5 L5,18 L10,18 L10,14.1339746 L8.34529946,17 L5,17 L5,15 L7.19059892,15 L9.5,11 L14.5,11 Z" id="Combined-Shape"></path>
                </g>
            </g>
        </g>
    </g>
</svg>