<?xml version="1.0" encoding="UTF-8"?>
<svg width="24px" height="24px" viewBox="0 0 24 24" version="1.1" xmlns="http://www.w3.org/2000/svg" xmlns:xlink="http://www.w3.org/1999/xlink">
    <!-- Generator: Sketch 51 (57462) - http://www.bohemiancoding.com/sketch -->
    <title>203 sport - sport volleyball</title>
    <desc>Created with Sketch.</desc>
    <defs></defs>
    <g id="Page-1" stroke="none" stroke-width="1" fill="none" fill-rule="evenodd">
        <g id="DA-iconset-alpha" transform="translate(-696.000000, -792.000000)" fill="#000000">
            <g id="icons/sport/type/volleyball" transform="translate(696.000000, 792.000000)">
                <g id="sport/type/volleyball">
                    <rect id="ic-background" opacity="0" x="0" y="0" width="24" height="24"></rect>
                    <path d="M9.44744252,17.9138917 L6.65197181,18.4068086 L6.30467545,16.4371931 L9.10014616,15.9442762 L6.80187023,9.62981496 L5.67028731,10.0416775 C4.6323315,10.4194625 3.4846468,9.88428831 3.10686178,8.8463325 L2,5.80525475 L3.87938524,5.12121447 L4.98624702,8.16229222 L15.6890192,4.26680172 L16.3730595,6.14618696 L11.6111363,7.87938524 L15.2947389,18 L12.1283243,22.5221087 L10.4900202,21.3749558 L13.0592648,17.7056943 L11.7106133,14.0003048 L10.6601177,14.3826539 L10.9795314,15.2602359 C11.3573164,16.2981917 10.8221423,17.4458764 9.78418645,17.8236614 C9.67477881,17.8634825 9.56210288,17.893674 9.44744252,17.9138917 Z M8,6 C6.8954305,6 6,5.1045695 6,4 C6,2.8954305 6.8954305,2 8,2 C9.1045695,2 10,2.8954305 10,4 C10,5.1045695 9.1045695,6 8,6 Z M20,6 C18.8954305,6 18,5.1045695 18,4 C18,2.8954305 18.8954305,2 20,2 C21.1045695,2 22,2.8954305 22,4 C22,5.1045695 21.1045695,6 20,6 Z" id="Combined-Shape"></path>
                </g>
            </g>
        </g>
    </g>
</svg>