<?xml version="1.0" encoding="UTF-8"?>
<svg width="24px" height="24px" viewBox="0 0 24 24" version="1.1" xmlns="http://www.w3.org/2000/svg" xmlns:xlink="http://www.w3.org/1999/xlink">
    <!-- Generator: Sketch 51 (57462) - http://www.bohemiancoding.com/sketch -->
    <title>204 sport - sport karting</title>
    <desc>Created with Sketch.</desc>
    <defs></defs>
    <g id="Page-1" stroke="none" stroke-width="1" fill="none" fill-rule="evenodd">
        <g id="DA-iconset-alpha" transform="translate(-792.000000, -792.000000)" fill="#000000">
            <g id="icons/sport/type/karting" transform="translate(792.000000, 792.000000)">
                <g id="sport/type/karting">
                    <rect id="ic-background" opacity="0" x="0" y="0" width="24" height="24"></rect>
                    <path d="M7.5,12 C6.3954305,12 5.5,11.1045695 5.5,10 C5.5,8.8954305 6.3954305,8 7.5,8 C8.6045695,8 9.5,8.8954305 9.5,10 C9.5,11.1045695 8.6045695,12 7.5,12 Z M3,15 L5.22346282,15 L4.94828774,13.9730326 C4.80534592,13.4395665 5.12192841,12.8912295 5.65539452,12.7482877 C5.82494991,12.7028555 6.00347721,12.7028555 6.17303261,12.7482877 L12.576146,14.4639968 L12.0585079,16.3958484 L9.55913727,15.7261441 L9.90046593,17 L12.3958413,17 L13.3935493,17 C14.2987606,17 15.091115,16.3920051 15.3254009,15.5176381 L16.0075687,12.9717531 L22,16.3958484 L22,20 L21,20 C21,18.3431458 19.6568542,17 18,17 C16.3431458,17 15,18.3431458 15,20 L10,20 C10,18.3431458 8.65685425,17 7,17 C5.34314575,17 4,18.3431458 4,20 L2,20 L2,16.3958484 L3,15 Z M7,22 C5.8954305,22 5,21.1045695 5,20 C5,18.8954305 5.8954305,18 7,18 C8.1045695,18 9,18.8954305 9,20 C9,21.1045695 8.1045695,22 7,22 Z M18,22 C16.8954305,22 16,21.1045695 16,20 C16,18.8954305 16.8954305,18 18,18 C19.1045695,18 20,18.8954305 20,20 C20,21.1045695 19.1045695,22 18,22 Z M13.2323959,14.733085 L14.0340742,11.741181 L15,12 L14.1983217,14.9919041 L13.2323959,14.733085 Z" id="Combined-Shape"></path>
                </g>
            </g>
        </g>
    </g>
</svg>