<?xml version="1.0" encoding="UTF-8"?>
<svg width="24px" height="24px" viewBox="0 0 24 24" version="1.1" xmlns="http://www.w3.org/2000/svg" xmlns:xlink="http://www.w3.org/1999/xlink">
    <!-- Generator: Sketch 51 (57462) - http://www.bohemiancoding.com/sketch -->
    <title>205 sport - sport chess</title>
    <desc>Created with Sketch.</desc>
    <defs></defs>
    <g id="Page-1" stroke="none" stroke-width="1" fill="none" fill-rule="evenodd">
        <g id="DA-iconset-alpha" transform="translate(-888.000000, -792.000000)" fill="#000000">
            <g id="icons/sport/type/chess" transform="translate(888.000000, 792.000000)">
                <rect id="ic-background" opacity="0" x="0" y="0" width="24" height="24"></rect>
                <path d="M16,20 L16,16 L12,16 L12,15 L13,15 L13,13 L14,13 L14,15 L15,15 L15,14 L16,14 L16,15 L18,15 L18,14 L19,14 L19,15 L20,15 L20,13 L21,13 L21,15 L22,15 L22,16 L18,16 L18,20 L20,20 L20,21 L14,21 L14,20 L16,20 Z M4.5,17 L4.38350719,17 C3.27893769,17 2.38350719,16.1045695 2.38350719,15 C2.38350719,14.8835708 2.39367396,14.767364 2.41389168,14.6527036 L3.1191996,10.6527036 C3.28774032,9.69686176 4.11822782,9 5.08881511,9 L5.44146907,9 C6.38261099,9 7.14555726,9.76294627 7.14555726,10.7040882 C7.14555726,10.803291 7.13689472,10.9023043 7.11966833,11 L6.94334135,12 L9,12 L8.29587848,9.37218271 L10.2277301,8.85454462 L10.9318517,11.4823619 C11.2177353,12.5492941 10.5845703,13.645968 9.51763809,13.9318517 C9.34881109,13.9770887 9.17478257,14 9,14 L6.59068739,14 L6.41436041,15 L8,15 C9.1045695,15 10,15.8954305 10,17 L10,21 L8,21 L8,17 L4.5,17 Z M7,8 C5.8954305,8 5,7.1045695 5,6 C5,4.8954305 5.8954305,4 7,4 C8.1045695,4 9,4.8954305 9,6 C9,7.1045695 8.1045695,8 7,8 Z M2,18 L7,18 L7,20 L2,20 L2,18 Z" id="Combined-Shape"></path>
            </g>
        </g>
    </g>
</svg>