<?xml version="1.0" encoding="UTF-8"?>
<svg width="24px" height="24px" viewBox="0 0 24 24" version="1.1" xmlns="http://www.w3.org/2000/svg" xmlns:xlink="http://www.w3.org/1999/xlink">
    <!-- Generator: Sketch 51 (57462) - http://www.bohemiancoding.com/sketch -->
    <title>206 sport - sport table games</title>
    <desc>Created with Sketch.</desc>
    <defs></defs>
    <g id="Page-1" stroke="none" stroke-width="1" fill="none" fill-rule="evenodd">
        <g id="DA-iconset-alpha" transform="translate(-744.000000, -792.000000)" fill="#000000">
            <g id="icons/sport/type/table-games" transform="translate(744.000000, 792.000000)">
                <g id="sport/type/table-games">
                    <rect id="ic-background" opacity="0" x="0" y="0" width="24" height="24"></rect>
                    <path d="M6.85229291,13.5163614 L6.41436041,16 L8,16 C9.1045695,16 10,16.8954305 10,18 L10,22 L8,22 L8,18 L4.5,18 L4.38350719,18 C3.27893769,18 2.38350719,17.1045695 2.38350719,16 C2.38350719,15.8835708 2.39367396,15.767364 2.41389168,15.6527036 L3.1191996,11.6527036 C3.28774032,10.6968618 4.11822782,10 5.08881511,10 L5.44146907,10 C6.32103328,10 7.04495723,10.6663752 7.13592272,11.5218074 L11.8176945,12.7762844 L11.3000564,14.708136 L6.85229291,13.5163614 Z M6,9 C4.8954305,9 4,8.1045695 4,7 C4,5.8954305 4.8954305,5 6,5 C7.1045695,5 8,5.8954305 8,7 C8,8.1045695 7.1045695,9 6,9 Z M19,9 C17.8954305,9 17,8.1045695 17,7 C17,5.8954305 17.8954305,5 19,5 C20.1045695,5 21,5.8954305 21,7 C21,8.1045695 20.1045695,9 19,9 Z M18,10 L20,10 C21.1045695,10 22,10.8954305 22,12 L22,14 L16,14 L16,12 C16,10.8954305 16.8954305,10 18,10 Z M2,19 L7,19 L7,21 L2,21 L2,19 Z M13,13 L14,13 L14,14 L13,14 L13,13 Z M12.5,10.7928932 L13.2071068,11.5 L12.5,12.2071068 L11.7928932,11.5 L12.5,10.7928932 Z M20,18 L14,18 L14,22 L13,22 L13,18 L12,18 L12,16 L22,16 L22,18 L21,18 L21,22 L20,22 L20,18 Z" id="Combined-Shape"></path>
                </g>
            </g>
        </g>
    </g>
</svg>