<?xml version="1.0" encoding="UTF-8"?>
<svg width="24px" height="24px" viewBox="0 0 24 24" version="1.1" xmlns="http://www.w3.org/2000/svg" xmlns:xlink="http://www.w3.org/1999/xlink">
    <!-- Generator: Sketch 51 (57462) - http://www.bohemiancoding.com/sketch -->
    <title>208 sport - sport ping-pong</title>
    <desc>Created with Sketch.</desc>
    <defs></defs>
    <g id="Page-1" stroke="none" stroke-width="1" fill="none" fill-rule="evenodd">
        <g id="DA-iconset-alpha" transform="translate(-936.000000, -792.000000)" fill="#000000">
            <g id="icons/sport/type/ping-pong" transform="translate(936.000000, 792.000000)">
                <g id="sport/type/ping-pong">
                    <rect id="ic-background" opacity="0" x="0" y="0" width="24" height="24"></rect>
                    <path d="M16.2997925,11 L16.7443477,9.77859462 C15.9658808,9.49525585 15.5645002,8.63449232 15.8478389,7.85602547 L16.018849,7.38617916 C16.396634,6.34822335 17.5443187,5.81304919 18.5822745,6.1908342 C19.6202304,6.56861922 20.1554045,7.71630392 19.7776195,8.75425973 L19.6066094,9.22410604 C19.3232707,10.0025729 18.4625071,10.4039535 17.6840403,10.1206148 L17.3639702,11 L16.6360298,13 L13.1547005,13 L11.1423761,9.51455186 L9.74873731,13.6006986 L12,17.5 L12,22 L10,22 L10,18.0358984 L8.24722325,15 L7.07050202,14.9994459 L6.09359125,17.6834861 C5.80602182,18.4735767 5.05500278,18.9994459 4.21420601,18.9994459 L2,18.9994459 L2,16.9994459 L4.21420601,16.9994459 L5.49749584,13.473636 L6.98965425,9.39888848 C5.49285477,10.0350763 4.36955248,11.3741148 4.03815943,12.9994459 L2,12.9994459 C2.48328301,9.63573042 5.36858053,7.04343928 8.87055496,7 L10.8452995,7 C11.5598306,7 12.2200847,7.38119785 12.5773503,8 L14.3094011,11 L16.2997925,11 Z M10,6 C8.8954305,6 8,5.1045695 8,4 C8,2.8954305 8.8954305,2 10,2 C11.1045695,2 12,2.8954305 12,4 C12,5.1045695 11.1045695,6 10,6 Z M14,15 L22,15 L22,16 L14,16 L14,15 Z M21,13 C20.4477153,13 20,12.5522847 20,12 C20,11.4477153 20.4477153,11 21,11 C21.5522847,11 22,11.4477153 22,12 C22,12.5522847 21.5522847,13 21,13 Z" id="Combined-Shape"></path>
                </g>
            </g>
        </g>
    </g>
</svg>