<?xml version="1.0" encoding="UTF-8"?>
<svg width="24px" height="24px" viewBox="0 0 24 24" version="1.1" xmlns="http://www.w3.org/2000/svg" xmlns:xlink="http://www.w3.org/1999/xlink">
    <!-- Generator: Sketch 51 (57462) - http://www.bohemiancoding.com/sketch -->
    <title>209 sport - sport aerobics</title>
    <desc>Created with Sketch.</desc>
    <defs></defs>
    <g id="Page-1" stroke="none" stroke-width="1" fill="none" fill-rule="evenodd">
        <g id="DA-iconset-alpha" transform="translate(-24.000000, -792.000000)" fill="#000000">
            <g id="icons/sport/type/aerobics" transform="translate(24.000000, 792.000000)">
                <rect id="ic-background" opacity="0" x="0" y="0" width="24" height="24"></rect>
                <path d="M10.0087067,15 L9.13076829,15.8779385 C7.35654563,17.6521611 6.11969731,19.7602654 5.42022335,22 L3.33651885,22 C4.08856316,19.2395588 5.54857512,16.6317045 7.71655473,14.4637249 L7.95447447,14.2258052 L12.5694945,8.7258384 C13.3056209,5.89530525 14.7824561,3.21754391 17,1 L18.5379412,2.29048591 L18.4142136,2.41421356 C16.8894185,3.93900864 15.7615257,5.71040721 15.0305353,7.60002808 L16.9835456,9.23879827 C17.2526741,9.46462394 17.4575686,9.75735788 17.5776067,10.087537 L18.5648343,12.8030247 C18.8303148,13.5332605 18.6488313,14.3511687 18.0994116,14.9005884 L17,16 L17,22 L15,22 L15,17.1547005 L11.2679492,15 L10.0087067,15 Z M16.684833,13.4867398 L16.0081062,11.6274482 L13.860193,14.1872316 L15.2068491,14.9647238 L16.684833,13.4867398 Z M19,9 C17.8954305,9 17,8.1045695 17,7 C17,5.8954305 17.8954305,5 19,5 C20.1045695,5 21,5.8954305 21,7 C21,8.1045695 20.1045695,9 19,9 Z" id="Combined-Shape"></path>
            </g>
        </g>
    </g>
</svg>