<?xml version="1.0" encoding="UTF-8"?>
<svg width="24px" height="24px" viewBox="0 0 24 24" version="1.1" xmlns="http://www.w3.org/2000/svg" xmlns:xlink="http://www.w3.org/1999/xlink">
    <!-- Generator: Sketch 51 (57462) - http://www.bohemiancoding.com/sketch -->
    <title>21 actions - calendar</title>
    <desc>Created with Sketch.</desc>
    <defs></defs>
    <g id="Page-1" stroke="none" stroke-width="1" fill="none" fill-rule="evenodd">
        <g id="DA-iconset-alpha" transform="translate(-984.000000, -24.000000)" fill="#000000" fill-rule="nonzero">
            <g id="icons/action/calendar" transform="translate(984.000000, 24.000000)">
                <path d="M19,4 C20.1,4 21,4.9 21,6 L21,20 C21,21.1 20.1,22 19,22 L5,22 C3.89,22 3,21.1 3,20 L3.01,6 C3.01,4.9 3.89,4 5,4 L6,4 L6,2 L9,2 L9,4 L15,4 L15,2 L18,2 L18,4 L19,4 Z M19,20 L19,8 L5,8 L5,20 L19,20 Z M7,16 L9,16 L9,18 L7,18 L7,16 Z M11,16 L13,16 L13,18 L11,18 L11,16 Z M7,13 L9,13 L9,15 L7,15 L7,13 Z M11,13 L13,13 L13,15 L11,15 L11,13 Z M15,13 L17,13 L17,15 L15,15 L15,13 Z M11,10 L13,10 L13,12 L11,12 L11,10 Z M7,10 L9,10 L9,12 L7,12 L7,10 Z M15,10 L17,10 L17,12 L15,12 L15,10 Z" id="Combined-Shape"></path>
            </g>
        </g>
    </g>
</svg>