<?xml version="1.0" encoding="UTF-8"?>
<svg width="24px" height="24px" viewBox="0 0 24 24" version="1.1" xmlns="http://www.w3.org/2000/svg" xmlns:xlink="http://www.w3.org/1999/xlink">
    <!-- Generator: Sketch 51 (57462) - http://www.bohemiancoding.com/sketch -->
    <title>210 sport - sport badminton</title>
    <desc>Created with Sketch.</desc>
    <defs></defs>
    <g id="Page-1" stroke="none" stroke-width="1" fill="none" fill-rule="evenodd">
        <g id="DA-iconset-alpha" transform="translate(-72.000000, -792.000000)" fill="#000000">
            <g id="icons/sport/type/badminton" transform="translate(72.000000, 792.000000)">
                <rect id="ic-background" opacity="0" x="0" y="0" width="24" height="24"></rect>
                <path d="M10,13.8727656 L10,12.3230096 C9.62757418,12.745069 9.0853411,13 8.5,13 L6.26794919,13 L4.95037588,8.08274946 C3.91690872,8.12403728 2.9556726,7.4480724 2.67673954,6.40708007 C2.65728119,6.33446051 2.64145463,6.26091618 2.62931876,6.18672084 L2.54458258,5.66866729 C2.36130833,4.54817919 3.05690065,3.47111547 4.15359151,3.17725804 C5.25028236,2.88340061 6.39121485,3.468369 6.79273873,4.53037728 L6.97838183,5.0213929 C7.38699679,6.10215668 6.91391752,7.30000164 5.91623289,7.82367358 L6.76732699,11 L8.5,11 L9.51334258,8.29775312 C9.80607037,7.51714567 10.5523118,7 11.3860009,7 L17.1139991,7 L17.8639991,5 L20,5 L18.9866574,7.70224688 C18.6939296,8.48285433 17.9476882,9 17.1139991,9 L14.5,9 L14.5,13.3313863 L17.6551173,22 L15.5267618,22 L12.9789702,15 L11.658592,15 L10.1041737,17.6923314 L11.6720368,22 L9.5436813,22 L8.22478847,18.3763717 C8.02259103,17.8208388 8.07653002,17.2043133 8.3721229,16.6923314 L10,13.8727656 Z M11,6 C9.8954305,6 9,5.1045695 9,4 C9,2.8954305 9.8954305,2 11,2 C12.1045695,2 13,2.8954305 13,4 C13,5.1045695 12.1045695,6 11,6 Z M19.7230563,2.77026301 L19.6799198,2.93125065 L19.1969569,2.80184113 C18.9302238,2.73037022 18.7719326,2.45620174 18.8434035,2.18946869 C18.9148744,1.92273564 19.1890429,1.76444439 19.4557759,1.8359153 L19.9387388,1.96532482 L19.8956023,2.12631246 L22,2 L21.4823619,3.93185165 L19.7230563,2.77026301 Z" id="Combined-Shape"></path>
            </g>
        </g>
    </g>
</svg>