<?xml version="1.0" encoding="UTF-8"?>
<svg width="24px" height="24px" viewBox="0 0 24 24" version="1.1" xmlns="http://www.w3.org/2000/svg" xmlns:xlink="http://www.w3.org/1999/xlink">
    <!-- Generator: Sketch 51 (57462) - http://www.bohemiancoding.com/sketch -->
    <title>211 sport - sport baseball</title>
    <desc>Created with Sketch.</desc>
    <defs></defs>
    <g id="Page-1" stroke="none" stroke-width="1" fill="none" fill-rule="evenodd">
        <g id="DA-iconset-alpha" transform="translate(-120.000000, -792.000000)" fill="#000000">
            <g id="icons/sport/type/baseball" transform="translate(120.000000, 792.000000)">
                <g id="sport/type/baseball">
                    <rect id="ic-background" opacity="0" x="0" y="0" width="24" height="24"></rect>
                    <path d="M7.98076211,7 L11.9617707,7 L19.4701334,2.14960784 C19.9114236,1.86453496 20.5002572,1.99117413 20.7853301,2.43246434 C20.7939262,2.44577106 20.8021886,2.45929044 20.8101095,2.47300983 C21.0727897,2.92798531 20.9169036,3.50976021 20.4619281,3.77244042 C20.4482087,3.78036132 20.4342936,3.78793826 20.4201958,3.79516415 L13.5819493,7.30013546 L13.5819493,9 L8.5166605,9 L12,22 L9.92944764,22 L8.18777789,15.5 L7.07055236,15.5 L8.00837453,19 L8,19 L4.93582223,21.5711504 L3.65024701,20.0390616 L5.74521378,18.2811757 L5,15.5 L3.39703096,9.51763809 C3.11114733,8.45070588 3.74431231,7.35403197 4.81124452,7.06814835 C4.98007152,7.02291129 5.15410004,7 5.32888261,7 L7.98076211,7 Z M5,6 C3.8954305,6 3,5.1045695 3,4 C3,2.8954305 3.8954305,2 5,2 C6.1045695,2 7,2.8954305 7,4 C7,5.1045695 6.1045695,6 5,6 Z M20,8 C19.4477153,8 19,7.55228475 19,7 C19,6.44771525 19.4477153,6 20,6 C20.5522847,6 21,6.44771525 21,7 C21,7.55228475 20.5522847,8 20,8 Z" id="Combined-Shape"></path>
                </g>
            </g>
        </g>
    </g>
</svg>