<?xml version="1.0" encoding="UTF-8"?>
<svg width="24px" height="24px" viewBox="0 0 24 24" version="1.1" xmlns="http://www.w3.org/2000/svg" xmlns:xlink="http://www.w3.org/1999/xlink">
    <!-- Generator: Sketch 51 (57462) - http://www.bohemiancoding.com/sketch -->
    <title>212 sport - sport basketball</title>
    <desc>Created with Sketch.</desc>
    <defs></defs>
    <g id="Page-1" stroke="none" stroke-width="1" fill="none" fill-rule="evenodd">
        <g id="DA-iconset-alpha" transform="translate(-168.000000, -792.000000)" fill="#000000">
            <g id="icons/sport/type/basketball" transform="translate(168.000000, 792.000000)">
                <g id="sport/type/basketball">
                    <rect id="ic-background" opacity="0" x="0" y="0" width="24" height="24"></rect>
                    <path d="M13,6 C11.8954305,6 11,5.1045695 11,4 C11,2.8954305 11.8954305,2 13,2 C14.1045695,2 15,2.8954305 15,4 C15,5.1045695 14.1045695,6 13,6 Z M19,19 C17.8954305,19 17,18.1045695 17,17 C17,15.8954305 17.8954305,15 19,15 C20.1045695,15 21,15.8954305 21,17 C21,18.1045695 20.1045695,19 19,19 Z M12.0416905,14.2083137 L13.9421465,17.5 L12.7363751,22 L10.6658228,22 L11.7958821,17.7825611 L10.1893697,15 L9.07050202,15 L7.61462109,19 L3.44214648,19 L3.44214648,17 L6.21420601,17 L7.49749584,13.4741902 L7.49967706,13.4749841 L8.98965425,9.39944263 C7.49285477,10.0356304 6.36955248,11.374669 6.03815943,13 L4,13 C4.48328301,9.63628457 7.36858053,7.04399343 10.870555,7.00055415 L13.5171386,7 C14.2348497,7 14.898042,7.38119785 15.2568975,8 L16.9966565,11 L20,11 L20,13 L16.9966565,13 C16.2789454,13 15.6157531,12.6188022 15.2568975,12 L13.7800529,9.45336319 L12.0416905,14.2083137 Z" id="Combined-Shape"></path>
                </g>
            </g>
        </g>
    </g>
</svg>