<?xml version="1.0" encoding="UTF-8"?>
<svg width="24px" height="24px" viewBox="0 0 24 24" version="1.1" xmlns="http://www.w3.org/2000/svg" xmlns:xlink="http://www.w3.org/1999/xlink">
    <!-- Generator: Sketch 51 (57462) - http://www.bohemiancoding.com/sketch -->
    <title>213 sport - sport boxing</title>
    <desc>Created with Sketch.</desc>
    <defs></defs>
    <g id="Page-1" stroke="none" stroke-width="1" fill="none" fill-rule="evenodd">
        <g id="DA-iconset-alpha" transform="translate(-216.000000, -792.000000)" fill="#000000">
            <g id="icons/sport/type/boxing" transform="translate(216.000000, 792.000000)">
                <g id="sport/type/boxing">
                    <rect id="ic-background" opacity="0" x="0" y="0" width="24" height="24"></rect>
                    <path d="M8.53589838,15.5 L7.81222211,15.5 L6.07055236,22 L4,22 L6,14.5358984 L6,9 C6,7.8954305 6.8954305,7 8,7 L17,7 C17,6.44771525 17.4477153,6 18,6 L19,6 C19.5522847,6 20,6.44771525 20,7 L20,8 C20,8.55228475 19.5522847,9 19,9 L10.5,9 L10.5,11 L13.5,11 C13.5,10.4477153 13.9477153,10 14.5,10 L15.5,10 C16.0522847,10 16.5,10.4477153 16.5,11 L16.5,12 C16.5,12.5522847 16.0522847,13 15.5,13 L10.5,13 L10.5,14.9019238 L12,17.5 L10.7942286,22 L8.72367627,22 L9.85373563,17.7825611 L8.53589838,15.5 Z M10,6 C8.8954305,6 8,5.1045695 8,4 C8,2.8954305 8.8954305,2 10,2 C11.1045695,2 12,2.8954305 12,4 C12,5.1045695 11.1045695,6 10,6 Z" id="Combined-Shape"></path>
                </g>
            </g>
        </g>
    </g>
</svg>