<?xml version="1.0" encoding="UTF-8"?>
<svg width="24px" height="24px" viewBox="0 0 24 24" version="1.1" xmlns="http://www.w3.org/2000/svg" xmlns:xlink="http://www.w3.org/1999/xlink">
    <!-- Generator: Sketch 51 (57462) - http://www.bohemiancoding.com/sketch -->
    <title>214 sport - sport canicross</title>
    <desc>Created with Sketch.</desc>
    <defs></defs>
    <g id="Page-1" stroke="none" stroke-width="1" fill="none" fill-rule="evenodd">
        <g id="DA-iconset-alpha" transform="translate(-264.000000, -792.000000)" fill="#000000">
            <g id="icons/sport/type/canicross" transform="translate(264.000000, 792.000000)">
                <g id="sport/type/canicross">
                    <rect id="ic-background" opacity="0" x="0" y="0" width="24" height="24"></rect>
                    <path d="M20,18.2679492 L21,20 L19,22 C18.6094757,21.6094757 18.6094757,20.9763107 19,20.5857864 L19.618697,19.9670894 L18.2001506,18.5 L15,18.5 L14,20.5 L12.5,22 C12.1094757,21.6094757 12.1094757,20.9763107 12.5,20.5857864 L13,20.0857864 L13,16.7324356 C12.4021986,16.3866262 12,15.7402824 12,15 C12.6852156,15 13.2899484,15.3445881 13.6503616,15.8699277 L17.5588235,15.0882353 L18,12 L18,11 C18.5522847,11 19,11.4477153 19,12 L20,12 L20.5,12.5 L22,13 L21.5547002,13.6679497 C21.2081542,14.1877687 20.6247446,14.5 20,14.5 L20,18.2679492 Z M10.7489011,11.9314738 L9.87461216,15.1943646 L11.2057714,17.5 L10,22 L7.92944764,22 L9.059507,17.7825611 L7.74166975,15.5 L7.20577137,15.5 L6,20 L2,20 L2,18 L4.46534602,18 L5.13521901,15.5 L7.41154273,7 L9.4638348,7 C10.5684043,7 11.4638348,7.8954305 11.4638348,9 C11.4638348,9.17478257 11.4409235,9.34881109 11.3956865,9.51763809 L11.2665392,9.99962219 L15,11 L14.4823619,12.9318517 L10.7489011,11.9314738 Z M10,6 C8.8954305,6 8,5.1045695 8,4 C8,2.8954305 8.8954305,2 10,2 C11.1045695,2 12,2.8954305 12,4 C12,5.1045695 11.1045695,6 10,6 Z" id="Combined-Shape"></path>
                </g>
            </g>
        </g>
    </g>
</svg>