<?xml version="1.0" encoding="UTF-8"?>
<svg width="24px" height="24px" viewBox="0 0 24 24" version="1.1" xmlns="http://www.w3.org/2000/svg" xmlns:xlink="http://www.w3.org/1999/xlink">
    <!-- Generator: Sketch 51 (57462) - http://www.bohemiancoding.com/sketch -->
    <title>217 transport - parking sign</title>
    <desc>Created with Sketch.</desc>
    <defs></defs>
    <g id="Page-1" stroke="none" stroke-width="1" fill="none" fill-rule="evenodd">
        <g id="DA-iconset-alpha" transform="translate(-168.000000, -840.000000)">
            <g id="icons/transport/parking" transform="translate(168.000000, 840.000000)">
                <polygon id="Shape-Copy-11" points="0 0 24 0 24 24 0 24"></polygon>
                <path d="M10,14 L13,14 C15.209139,14 17,12.209139 17,10 C17,7.790861 15.209139,6 13,6 L8,6 L8,14 L8,18 L10,18 L10,14 Z M6,3 L18,3 C19.6568542,3 21,4.34314575 21,6 L21,18 C21,19.6568542 19.6568542,21 18,21 L6,21 C4.34314575,21 3,19.6568542 3,18 L3,6 C3,4.34314575 4.34314575,3 6,3 Z M10,8 L13,8 C14.1045695,8 15,8.8954305 15,10 C15,11.1045695 14.1045695,12 13,12 L10,12 L10,8 Z" id="Combined-Shape" fill="#000000" fill-rule="evenodd"></path>
            </g>
        </g>
    </g>
</svg>