<?xml version="1.0" encoding="UTF-8"?>
<svg width="24px" height="24px" viewBox="0 0 24 24" version="1.1" xmlns="http://www.w3.org/2000/svg" xmlns:xlink="http://www.w3.org/1999/xlink">
    <!-- Generator: Sketch 51 (57462) - http://www.bohemiancoding.com/sketch -->
    <title>218 transport - parking sign stroke</title>
    <desc>Created with Sketch.</desc>
    <defs></defs>
    <g id="Page-1" stroke="none" stroke-width="1" fill="none" fill-rule="evenodd">
        <g id="DA-iconset-alpha" transform="translate(-120.000000, -840.000000)">
            <g id="icons/transport/parking_stroke" transform="translate(120.000000, 840.000000)">
                <polygon id="Shape-Copy-15" points="0 0 24 0 24 24 0 24"></polygon>
                <path d="M5,2 L19,2 C20.6568542,2 22,3.34314575 22,5 L22,19 C22,20.6568542 20.6568542,22 19,22 L5,22 C3.34314575,22 2,20.6568542 2,19 L2,5 C2,3.34314575 3.34314575,2 5,2 Z M5,3 C3.8954305,3 3,3.8954305 3,5 L3,19 C3,20.1045695 3.8954305,21 5,21 L19,21 C20.1045695,21 21,20.1045695 21,19 L21,5 C21,3.8954305 20.1045695,3 19,3 L5,3 Z M5,5 L19,5 L19,19 L5,19 L5,5 Z M10,14 L13.5,14 C15.4329966,14 17,12.4329966 17,10.5 C17,8.56700338 15.4329966,7 13.5,7 L8,7 L8,17 L10,17 L10,14 Z M10,9 L13.5,9 C14.3284271,9 15,9.67157288 15,10.5 C15,11.3284271 14.3284271,12 13.5,12 L10,12 L10,9 Z" id="Combined-Shape" fill="#000000" fill-rule="evenodd"></path>
            </g>
        </g>
    </g>
</svg>