<?xml version="1.0" encoding="UTF-8"?>
<svg width="24px" height="24px" viewBox="0 0 24 24" version="1.1" xmlns="http://www.w3.org/2000/svg" xmlns:xlink="http://www.w3.org/1999/xlink">
    <!-- Generator: Sketch 51 (57462) - http://www.bohemiancoding.com/sketch -->
    <title>225 transport - car face</title>
    <desc>Created with Sketch.</desc>
    <defs></defs>
    <g id="Page-1" stroke="none" stroke-width="1" fill="none" fill-rule="evenodd">
        <g id="DA-iconset-alpha" transform="translate(-504.000000, -840.000000)" fill="#000000">
            <g id="icons/transport/car_face" transform="translate(504.000000, 840.000000)">
                <g>
                    <rect id="ic-background" fill-rule="evenodd" opacity="0" x="0" y="0" width="24" height="24"></rect>
                    <path d="M21,13 L21,20 C21,20.55 20.55,21 20,21 L19,21 C18.45,21 18,20.55 18,20 L18,19 L6,19 L6,20 C6,20.55 5.55,21 5,21 L4,21 C3.45,21 3,20.55 3,20 L3,13 L3,12.9333333 L5.21740509,7.80866378 C5.69246875,6.71073889 6.77441929,6 7.97071547,6 L16.0292845,6 C17.2255807,6 18.3075313,6.71073889 18.7825949,7.80866378 L21,12.9333333 L21,13 Z M6.08113883,14.2905694 C5.91262996,14.206315 5.72243456,14.1754505 5.53592942,14.2020941 C5.02952978,14.2744369 4.67765719,14.7436004 4.75,15.25 L4.87734591,16.1414214 C4.9477243,16.6340701 5.36964503,17 5.8672954,17 L7.75,17 C8.16421356,17 8.5,16.6642136 8.5,16.25 L8.5,16.118034 C8.5,15.7392619 8.28599762,15.3929988 7.9472136,15.2236068 L6.08113883,14.2905694 Z M17.8859193,14.2905694 L16.0198445,15.2236068 C15.6810605,15.3929988 15.4670581,15.7392619 15.4670581,16.118034 L15.4670581,16.25 C15.4670581,16.6642136 15.8028446,17 16.2170581,17 L18.0997627,17 C18.5974131,17 19.0193338,16.6340701 19.0897122,16.1414214 L19.2170581,15.25 C19.2894009,14.7436004 18.9375283,14.2744369 18.4311287,14.2020941 C18.2446236,14.1754505 18.0544282,14.206315 17.8859193,14.2905694 Z M16.9470547,8.60288793 C16.7887001,8.23691296 16.4280499,8 16.0292845,8 L7.97071547,8 C7.57195008,8 7.2112999,8.23691296 7.05294534,8.60288793 L5.58304108,12 L18.4169589,12 L16.9470547,8.60288793 Z" id="Combined-Shape" fill-rule="nonzero"></path>
                </g>
            </g>
        </g>
    </g>
</svg>