<?xml version="1.0" encoding="UTF-8"?>
<svg width="24px" height="24px" viewBox="0 0 24 24" version="1.1" xmlns="http://www.w3.org/2000/svg" xmlns:xlink="http://www.w3.org/1999/xlink">
    <!-- Generator: Sketch 51 (57462) - http://www.bohemiancoding.com/sketch -->
    <title>23 actions - search doc</title>
    <desc>Created with Sketch.</desc>
    <defs></defs>
    <g id="Page-1" stroke="none" stroke-width="1" fill="none" fill-rule="evenodd">
        <g id="DA-iconset-alpha" transform="translate(-1080.000000, -24.000000)" fill="#000000">
            <g id="icons/action/search_in_file" transform="translate(1080.000000, 24.000000)">
                <path d="M19.3,17.89 L22.42,21 L21,22.42 L17.88,19.3 C17.19,19.74 16.37,20 15.49,20 C13.01,20 11,17.99 11,15.5 C11,13.01 13.01,11 15.5,11 C17.99,11 20,13.01 20,15.5 C20,16.38 19.74,17.19 19.3,17.89 Z M15.5,18 C16.88,18 18,16.88 18,15.5 C18,14.12 16.88,13 15.5,13 C14.12,13 13,14.12 13,15.5 C13,16.88 14.12,18 15.5,18 Z M10.8109307,11 C10.258428,11.5755438 9.8107613,12.2524812 9.49874249,13 L8,13 L8,11 L10.8109307,11 Z M9.01897445,15 C9.00640164,15.1650269 9,15.3317704 9,15.5 C9,16.0162122 9.06027581,16.5184318 9.17416858,17 L8,17 L8,15 L9.01897445,15 Z M8,7 L16,7 L16,9 L8,9 L8,7 Z M18,9.49874249 L18,4 L6,4 L6,20 L10.8109307,20 C11.8838613,21.1176753 13.3521447,21.8529799 14.9901332,21.9802663 L15,22 L6,22 C4.8954305,22 4,21.1045695 4,20 L4,4 C4,2.8954305 4.8954305,2 6,2 L18,2 C19.1045695,2 20,2.8954305 20,4 L20,10.8109307 C19.4244562,10.258428 18.7475188,9.8107613 18,9.49874249 Z" id="Combined-Shape"></path>
            </g>
        </g>
    </g>
</svg>