<?xml version="1.0" encoding="UTF-8"?>
<svg width="24px" height="24px" viewBox="0 0 24 24" version="1.1" xmlns="http://www.w3.org/2000/svg" xmlns:xlink="http://www.w3.org/1999/xlink">
    <!-- Generator: Sketch 51 (57462) - http://www.bohemiancoding.com/sketch -->
    <title>3 actions - net</title>
    <desc>Created with Sketch.</desc>
    <defs></defs>
    <g id="Page-1" stroke="none" stroke-width="1" fill="none" fill-rule="evenodd">
        <g id="DA-iconset-alpha" transform="translate(-120.000000, -24.000000)">
            <g id="icons/action/language" transform="translate(120.000000, 24.000000)">
                <polygon id="bounds" points="0 0 24 0 24 24 0 24"></polygon>
                <path d="M13.8125649,16.8437437 C13.2322245,16.7829306 12.6260832,16.75 12,16.75 C11.3739168,16.75 10.7677755,16.7829306 10.1874351,16.8437437 C10.3546891,17.7050171 10.5663544,18.4930175 10.8162114,19.1801242 C10.9215923,19.4699217 11.0282507,19.727298 11.1322803,19.9534861 C11.4173017,19.984228 11.706809,20 12,20 C12.293191,20 12.5826983,19.984228 12.8677197,19.9534861 C12.9717493,19.727298 13.0784077,19.4699217 13.1837886,19.1801242 C13.4336456,18.4930175 13.6453109,17.7050171 13.8125649,16.8437437 Z M15.5411855,17.1200784 C15.379465,17.964202 15.1790034,18.7434685 14.9463051,19.439991 C15.9342244,19.0484368 16.825605,18.4658056 17.5748526,17.7376912 C16.9751409,17.4948755 16.2913874,17.2839516 15.5411855,17.1200784 Z M14.0770047,8.88845627 C13.4069632,8.96155212 12.7121757,9 12,9 C11.2878243,9 10.5930368,8.96155212 9.9229953,8.88845627 C9.8453318,9.56695944 9.79268502,10.2742305 9.76736736,11 L14.2326326,11 C14.207315,10.2742305 14.1546682,9.56695944 14.0770047,8.88845627 Z M15.8067535,8.61262976 C15.8964332,9.37535695 15.9566436,10.1745308 15.9836934,11 L19.9381062,11 C19.7859619,9.77989962 19.3590665,8.64512428 18.7212876,7.65954157 C17.8705543,8.05859865 16.8861032,8.38297739 15.8067535,8.61262976 Z M12.8677197,4.04651388 C12.5826983,4.01577201 12.293191,4 12,4 C11.706809,4 11.4173017,4.01577201 11.1322803,4.04651388 C11.0282507,4.272702 10.9215923,4.53007826 10.8162114,4.81987577 C10.5663544,5.50698251 10.3546891,6.29498292 10.1874351,7.15625628 C10.7677755,7.21706935 11.3739168,7.25 12,7.25 C12.6260832,7.25 13.2322245,7.21706935 13.8125649,7.15625628 C13.6453109,6.29498292 13.4336456,5.50698251 13.1837886,4.81987577 C13.0784077,4.53007826 12.9717493,4.272702 12.8677197,4.04651388 Z M14.9463051,4.560009 C15.1790034,5.25653145 15.379465,6.03579797 15.5411855,6.87992164 C16.2913874,6.71604841 16.9751409,6.50512453 17.5748526,6.26230876 C16.825605,5.53419443 15.9342244,4.95156315 14.9463051,4.560009 Z M14.2326326,13 L9.76736736,13 C9.79268502,13.7257695 9.8453318,14.4330406 9.9229953,15.1115437 C10.5930368,15.0384479 11.2878243,15 12,15 C12.7121757,15 13.4069632,15.0384479 14.0770047,15.1115437 C14.1546682,14.4330406 14.207315,13.7257695 14.2326326,13 Z M15.9836934,13 C15.9566436,13.8254692 15.8964332,14.6246431 15.8067535,15.3873702 C16.8861032,15.6170226 17.8705543,15.9414013 18.7212876,16.3404584 C19.3590665,15.3548757 19.7859619,14.2201004 19.9381062,13 L15.9836934,13 Z M8.45881454,17.1200784 C7.70861256,17.2839516 7.02485906,17.4948755 6.42514736,17.7376912 C7.17439502,18.4658056 8.06577558,19.0484368 9.05369495,19.439991 C8.82099661,18.7434685 8.62053502,17.964202 8.45881454,17.1200784 Z M8.19324646,8.61262976 C7.11389683,8.38297739 6.12944566,8.05859865 5.27871237,7.65954157 C4.64093352,8.64512428 4.21403812,9.77989962 4.06189375,11 L8.01630655,11 C8.04335637,10.1745308 8.10356681,9.37535695 8.19324646,8.61262976 Z M9.05369495,4.560009 C8.06577558,4.95156315 7.17439502,5.53419443 6.42514736,6.26230876 C7.02485906,6.50512453 7.70861256,6.71604841 8.45881454,6.87992164 C8.62053502,6.03579797 8.82099661,5.25653145 9.05369495,4.560009 Z M8.01630655,13 L4.06189375,13 C4.21403812,14.2201004 4.64093352,15.3548757 5.27871237,16.3404584 C6.12944566,15.9414013 7.11389683,15.6170226 8.19324646,15.3873702 C8.10356681,14.6246431 8.04335637,13.8254692 8.01630655,13 Z M12,22 C6.4771525,22 2,17.5228475 2,12 C2,6.4771525 6.4771525,2 12,2 C17.5228475,2 22,6.4771525 22,12 C22,17.5228475 17.5228475,22 12,22 Z" id="Combined-Shape" fill="#000000" fill-rule="nonzero"></path>
            </g>
        </g>
    </g>
</svg>