<?xml version="1.0" encoding="UTF-8"?>
<svg width="24px" height="24px" viewBox="0 0 24 24" version="1.1" xmlns="http://www.w3.org/2000/svg" xmlns:xlink="http://www.w3.org/1999/xlink">
    <!-- Generator: Sketch 51 (57462) - http://www.bohemiancoding.com/sketch -->
    <title>4 actions - settings 6-sided</title>
    <desc>Created with Sketch.</desc>
    <defs></defs>
    <g id="Page-1" stroke="none" stroke-width="1" fill="none" fill-rule="evenodd">
        <g id="DA-iconset-alpha" transform="translate(-168.000000, -24.000000)">
            <g id="icons/action/settings" transform="translate(168.000000, 24.000000)">
                <polygon id="bounds" points="0 0 24 0 24 25 0 25"></polygon>
                <path d="M19.4394941,12.975 C19.4769941,12.6625 19.5019941,12.3375 19.5019941,12 C19.5019941,11.6625 19.4769941,11.3375 19.4269941,11.025 L21.5394941,9.375 C21.7269941,9.225 21.7769941,8.95 21.6644941,8.7375 L19.6644941,5.275 C19.5394941,5.05 19.2769941,4.975 19.0519941,5.05 L16.5644941,6.05 C16.0394941,5.65 15.4894941,5.325 14.8769941,5.075 L14.5019941,2.425 C14.4644941,2.175 14.2519941,2 14.0019941,2 L10.0019941,2 C9.75199413,2 9.55199413,2.175 9.51449413,2.425 L9.13949413,5.075 C8.52699413,5.325 7.96449413,5.6625 7.45199413,6.05 L4.96449413,5.05 C4.73949413,4.9625 4.47699413,5.05 4.35199413,5.275 L2.35199413,8.7375 C2.22699413,8.9625 2.27699413,9.225 2.47699413,9.375 L4.58949413,11.025 C4.53949413,11.3375 4.50199413,11.675 4.50199413,12 C4.50199413,12.325 4.52699413,12.6625 4.57699413,12.975 L2.46449413,14.625 C2.27699413,14.775 2.22699413,15.05 2.33949413,15.2625 L4.33949413,18.725 C4.46449413,18.95 4.72699413,19.025 4.95199413,18.95 L7.43949413,17.95 C7.96449413,18.35 8.51449413,18.675 9.12699413,18.925 L9.50199413,21.575 C9.55199413,21.825 9.75199413,22 10.0019941,22 L14.0019941,22 C14.2519941,22 14.4644941,21.825 14.4894941,21.575 L14.8644941,18.925 C15.4769941,18.675 16.0394941,18.3375 16.5519941,17.95 L19.0394941,18.95 C19.2644941,19.0375 19.5269941,18.95 19.6519941,18.725 L21.6519941,15.2625 C21.7769941,15.0375 21.7269941,14.775 21.5269941,14.625 L19.4394941,12.975 Z M12.0019941,15.75 C9.93949413,15.75 8.25199413,14.0625 8.25199413,12 C8.25199413,9.9375 9.93949413,8.25 12.0019941,8.25 C14.0644941,8.25 15.7519941,9.9375 15.7519941,12 C15.7519941,14.0625 14.0644941,15.75 12.0019941,15.75 Z" id="Shape" fill="#000000" fill-rule="nonzero"></path>
            </g>
        </g>
    </g>
</svg>