<?xml version="1.0" encoding="UTF-8"?>
<svg width="24px" height="24px" viewBox="0 0 24 24" version="1.1" xmlns="http://www.w3.org/2000/svg" xmlns:xlink="http://www.w3.org/1999/xlink">
    <!-- Generator: Sketch 51 (57462) - http://www.bohemiancoding.com/sketch -->
    <title>46 audio - volume up</title>
    <desc>Created with Sketch.</desc>
    <defs></defs>
    <g id="Page-1" stroke="none" stroke-width="1" fill="none" fill-rule="evenodd">
        <g id="DA-iconset-alpha" transform="translate(-456.000000, -72.000000)">
            <g id="icons/audio/volume_up" transform="translate(456.000000, 72.000000)">
                <polygon id="Shape" points="0 0 24 0 24 24 0 24"></polygon>
                <path d="M3,9 L7,9 L12,4 L12,20 L7,15 L3,15 L3,9 Z M15.2426407,16.2426407 L13.8284271,14.8284271 C14.5522847,14.1045695 15,13.1045695 15,12 C15,10.8006182 14.4721255,9.72452813 13.6360318,8.99138511 L15.0522826,7.57513435 C16.2493937,8.67204181 17,10.2483642 17,12 C17,13.6568542 16.3284271,15.1568542 15.2426407,16.2426407 Z M18.0710678,19.0710678 L16.6568542,17.6568542 C18.1045695,16.209139 19,14.209139 19,12 C19,9.69609014 18.0260946,7.61964807 16.4675135,6.15990346 L17.8823372,4.7450798 C19.8025707,6.56729529 21,9.14381035 21,12 C21,14.7614237 19.8807119,17.2614237 18.0710678,19.0710678 Z" id="Combined-Shape" fill="#000000" fill-rule="nonzero"></path>
            </g>
        </g>
    </g>
</svg>