<?xml version="1.0" encoding="UTF-8"?>
<svg width="24px" height="24px" viewBox="0 0 24 24" version="1.1" xmlns="http://www.w3.org/2000/svg" xmlns:xlink="http://www.w3.org/1999/xlink">
    <!-- Generator: Sketch 51 (57462) - http://www.bohemiancoding.com/sketch -->
    <title>47 audio - volume off</title>
    <desc>Created with Sketch.</desc>
    <defs></defs>
    <g id="Page-1" stroke="none" stroke-width="1" fill="none" fill-rule="evenodd">
        <g id="DA-iconset-alpha" transform="translate(-504.000000, -72.000000)">
            <g id="icons/audio/volume_off" transform="translate(504.000000, 72.000000)">
                <polygon id="bounds" points="0 0 24 0 24 24 0 24"></polygon>
                <path d="M7.5,8.5 L12,13 L12,20 L7,15 L3,15 L3,9 L7,9 L7.5,8.5 Z M10.3284271,5.67157288 L12,4 L12,7.34314575 L10.3284271,5.67157288 Z M18.729027,14.0721728 C18.905771,13.4112663 19,12.7166373 19,12 C19,9.69609014 18.0260946,7.61964807 16.4675135,6.15990346 L17.8823372,4.7450798 C19.8025707,6.56729529 21,9.14381035 21,12 C21,13.2897185 20.755845,14.5224116 20.3112342,15.65438 L18.729027,14.0721728 Z M13.8284266,9.17157238 L13.6421356,8.98528135 L15.0522826,7.57513435 C16.2493937,8.67204181 17,10.2483642 17,12 C17,12.1120797 16.9969269,12.2234416 16.9908603,12.3340061 L13.8284266,9.17157233 Z M3.13823276,4.13823276 L4.55244632,2.7240192 L21.5230091,19.6945819 L20.1087955,21.1087955 L3.13823276,4.13823276 Z" id="Combined-Shape" fill="#000000" fill-rule="nonzero"></path>
            </g>
        </g>
    </g>
</svg>