<?xml version="1.0" encoding="UTF-8"?>
<svg width="24px" height="24px" viewBox="0 0 24 24" version="1.1" xmlns="http://www.w3.org/2000/svg" xmlns:xlink="http://www.w3.org/1999/xlink">
    <!-- Generator: Sketch 51 (57462) - http://www.bohemiancoding.com/sketch -->
    <title>5 actions - settings 8-sided</title>
    <desc>Created with Sketch.</desc>
    <defs></defs>
    <g id="Page-1" stroke="none" stroke-width="1" fill="none" fill-rule="evenodd">
        <g id="DA-iconset-alpha" transform="translate(-216.000000, -24.000000)">
            <g id="icons/action/settings-8parts" transform="translate(216.000000, 24.000000)">
                <rect id="bounding-box" fill="#DBDBDB" opacity="0" x="0" y="0" width="24" height="24"></rect>
                <path d="M22,10.5807292 L22,13.4713542 C22,13.6666667 21.84375,13.9010417 21.6354167,13.9401042 L19.2265625,14.3046875 C19.0833333,14.7213542 18.9270833,15.1119792 18.71875,15.4895833 C19.1614583,16.1276042 19.6302083,16.7005208 20.1119792,17.2864583 C20.1901042,17.3776042 20.2421875,17.4947917 20.2421875,17.6119792 C20.2421875,17.7291667 20.203125,17.8203125 20.125,17.9114583 C19.8125,18.328125 18.0546875,20.2421875 17.6119792,20.2421875 C17.4947917,20.2421875 17.3776042,20.1901042 17.2734375,20.125 L15.4765625,18.71875 C15.0989583,18.9140625 14.6953125,19.0833333 14.2916667,19.2135417 C14.2005208,20.0078125 14.1223958,20.8541667 13.9140625,21.6354167 C13.8619792,21.84375 13.6796875,22 13.4453125,22 L10.5546875,22 C10.3203125,22 10.1119792,21.8307292 10.0859375,21.609375 L9.72135417,19.2135417 C9.31770833,19.0833333 8.92708333,18.9270833 8.54947917,18.7317708 L6.71354167,20.125 C6.62239583,20.203125 6.50520833,20.2421875 6.38802083,20.2421875 C6.27083333,20.2421875 6.15364583,20.1901042 6.0625,20.0989583 C5.37239583,19.4739583 4.4609375,18.6666667 3.9140625,17.9114583 C3.84895833,17.8203125 3.82291667,17.7161458 3.82291667,17.6119792 C3.82291667,17.4947917 3.86197917,17.4036458 3.92708333,17.3125 C4.36979167,16.7135417 4.8515625,16.140625 5.29427083,15.5286458 C5.07291667,15.1119792 4.890625,14.6822917 4.76041667,14.2395833 L2.37760417,13.8880208 C2.15625,13.8489583 2,13.640625 2,13.4192708 L2,10.5286458 C2,10.3333333 2.15625,10.0989583 2.3515625,10.0598958 L4.7734375,9.6953125 C4.90364583,9.27864583 5.07291667,8.88802083 5.28125,8.49739583 C4.83854167,7.87239583 4.36979167,7.28645833 3.88802083,6.70052083 C3.80989583,6.609375 3.7578125,6.50520833 3.7578125,6.38802083 C3.7578125,6.27083333 3.80989583,6.1796875 3.875,6.08854167 C4.1875,5.65885417 5.9453125,3.7578125 6.38802083,3.7578125 C6.50520833,3.7578125 6.62239583,3.80989583 6.7265625,3.88802083 L8.5234375,5.28125 C8.90104167,5.0859375 9.3046875,4.91666667 9.70833333,4.78645833 C9.79947917,3.9921875 9.87760417,3.14583333 10.0859375,2.36458333 C10.1380208,2.15625 10.3203125,2 10.5546875,2 L13.4453125,2 C13.6796875,2 13.8880208,2.16927083 13.9140625,2.390625 L14.2786458,4.78645833 C14.6822917,4.91666667 15.0729167,5.07291667 15.4505208,5.26822917 L17.2994792,3.875 C17.3776042,3.796875 17.4947917,3.7578125 17.6119792,3.7578125 C17.7291667,3.7578125 17.8463542,3.80989583 17.9375,3.88802083 C18.6276042,4.52604167 19.5390625,5.33333333 20.0859375,6.1015625 C20.1510417,6.1796875 20.1770833,6.28385417 20.1770833,6.38802083 C20.1770833,6.50520833 20.1380208,6.59635417 20.0729167,6.6875 C19.6302083,7.28645833 19.1484375,7.859375 18.7057292,8.47135417 C18.9270833,8.88802083 19.109375,9.31770833 19.2395833,9.74739583 L21.6223958,10.1119792 C21.84375,10.1510417 22,10.359375 22,10.5807292 Z M12.0019941,15.75 C9.93949413,15.75 8.25199413,14.0625 8.25199413,12 C8.25199413,9.9375 9.93949413,8.25 12.0019941,8.25 C14.0644941,8.25 15.7519941,9.9375 15.7519941,12 C15.7519941,14.0625 14.0644941,15.75 12.0019941,15.75 Z" id="icons" fill="#000000"></path>
            </g>
        </g>
    </g>
</svg>