<?xml version="1.0" encoding="UTF-8"?>
<svg width="24px" height="24px" viewBox="0 0 24 24" version="1.1" xmlns="http://www.w3.org/2000/svg" xmlns:xlink="http://www.w3.org/1999/xlink">
    <!-- Generator: Sketch 51 (57462) - http://www.bohemiancoding.com/sketch -->
    <title>50 communication - call</title>
    <desc>Created with Sketch.</desc>
    <defs></defs>
    <g id="Page-1" stroke="none" stroke-width="1" fill="none" fill-rule="evenodd">
        <g id="DA-iconset-alpha" transform="translate(-24.000000, -120.000000)">
            <g id="icons/communication/call" transform="translate(24.000000, 120.000000)">
                <rect id="Rectangle" fill="#DBDBDB" opacity="0" x="0" y="0" width="24" height="24"></rect>
                <path d="M3.20399521,3.81610636 L4.61820877,2.39840583 C5.32531555,1.68955556 6.41620519,2.01367668 7.15526566,2.69049448 C7.33564517,2.85568267 7.46897941,3.06904669 7.56867519,3.29391528 L8.93546731,6.37678016 C9.10351594,6.75582185 9.02134335,7.19946808 8.72876255,7.49277029 L6.56684793,9.66001546 C7.44307857,11.2336206 8.56288776,12.7324635 9.92150963,14.0944352 C11.2801315,15.456407 12.7752878,16.5789773 14.3450225,17.4573684 L16.5069371,15.2901232 C16.7995179,14.996821 17.242073,14.9144458 17.6201824,15.0829088 L20.6954647,16.453071 C20.9197802,16.5530126 21.1238261,16.6934967 21.2974013,16.8674998 C22.0045081,17.5763501 22.2958783,18.701962 21.5887715,19.4108123 L20.174558,20.8285128 C19.4674512,21.5373631 18.1534134,22.0804552 17.0257644,21.9901716 C13.7765399,21.7300272 9.90837232,19.7520677 7.0930825,16.9298363 C4.27779269,14.107605 2.705165,10.4798997 2.04519466,6.9726696 C1.81614935,5.75547155 2.49688842,4.52495663 3.20399521,3.81610636 Z" id="Combined-Shape" fill="#000000"></path>
            </g>
        </g>
    </g>
</svg>