<?xml version="1.0" encoding="UTF-8"?>
<svg width="24px" height="24px" viewBox="0 0 24 24" version="1.1" xmlns="http://www.w3.org/2000/svg" xmlns:xlink="http://www.w3.org/1999/xlink">
    <!-- Generator: Sketch 51 (57462) - http://www.bohemiancoding.com/sketch -->
    <title>52 devices - monitor desktop</title>
    <desc>Created with Sketch.</desc>
    <defs></defs>
    <g id="Page-1" stroke="none" stroke-width="1" fill="none" fill-rule="evenodd">
        <g id="DA-iconset-alpha" transform="translate(-24.000000, -168.000000)" fill="#000000">
            <g id="icons/common/hardware/monitor" transform="translate(24.000000, 168.000000)">
                <rect id="bg-icon" fill-rule="evenodd" opacity="0" x="0" y="0" width="24" height="24"></rect>
                <path d="M21,4 L3,4 L3,16 L21,16 L21,4 Z M14,18 L14,20 L18,20 L18,22 L6,22 L6,20 L10,20 L10,18 L3,18 C1.8954305,18 1,17.1045695 1,16 L1,4 C1,2.8954305 1.8954305,2 3,2 L21,2 C22.1045695,2 23,2.8954305 23,4 L23,16 C23,17.1045695 22.1045695,18 21,18 L14,18 Z" id="Combined-Shape" fill-rule="nonzero"></path>
            </g>
        </g>
    </g>
</svg>