<?xml version="1.0" encoding="UTF-8"?>
<svg width="24px" height="24px" viewBox="0 0 24 24" version="1.1" xmlns="http://www.w3.org/2000/svg" xmlns:xlink="http://www.w3.org/1999/xlink">
    <!-- Generator: Sketch 51 (57462) - http://www.bohemiancoding.com/sketch -->
    <title>53 devices - iphone</title>
    <desc>Created with Sketch.</desc>
    <defs></defs>
    <g id="Page-1" stroke="none" stroke-width="1" fill="none" fill-rule="evenodd">
        <g id="DA-iconset-alpha" transform="translate(-72.000000, -168.000000)" fill="#000000">
            <g id="icons/hardware/phone-apple" transform="translate(72.000000, 168.000000)">
                <rect id="bg-icon" opacity="0" x="0" y="0" width="24" height="24"></rect>
                <path d="M8,1 L16,1 C17.1045695,1 18,1.8954305 18,3 L18,21 C18,22.1045695 17.1045695,23 16,23 L8,23 C6.8954305,23 6,22.1045695 6,21 L6,3 C6,1.8954305 6.8954305,1 8,1 Z M8,4 L8,19 L16,19 L16,4 L8,4 Z M12,20 C11.4477153,20 11,20.4477153 11,21 C11,21.5522847 11.4477153,22 12,22 C12.5522847,22 13,21.5522847 13,21 C13,20.4477153 12.5522847,20 12,20 Z" id="Combined-Shape"></path>
            </g>
        </g>
    </g>
</svg>