<?xml version="1.0" encoding="UTF-8"?>
<svg width="24px" height="24px" viewBox="0 0 24 24" version="1.1" xmlns="http://www.w3.org/2000/svg" xmlns:xlink="http://www.w3.org/1999/xlink">
    <!-- Generator: Sketch 51 (57462) - http://www.bohemiancoding.com/sketch -->
    <title>56 devices - apple watch</title>
    <desc>Created with Sketch.</desc>
    <defs></defs>
    <g id="Page-1" stroke="none" stroke-width="1" fill="none" fill-rule="evenodd">
        <g id="DA-iconset-alpha" transform="translate(-216.000000, -168.000000)" fill="#000000">
            <g id="icons/hardware/watch_apple" transform="translate(216.000000, 168.000000)">
                <rect id="bg-icon" fill-rule="evenodd" opacity="0" x="0" y="0" width="24" height="24"></rect>
                <path d="M8,7.5 C7.72385763,7.5 7.5,7.72385763 7.5,8 L7.5,16 C7.5,16.2761424 7.72385763,16.5 8,16.5 L16,16.5 C16.2761424,16.5 16.5,16.2761424 16.5,16 L16.5,8 C16.5,7.72385763 16.2761424,7.5 16,7.5 L8,7.5 Z M18,12 L18,16 C18,16.9244636 17.372772,17.7024302 16.5206614,17.9315547 C16.5221902,17.9541718 16.522967,17.9769952 16.522967,18 C16.522967,18.1272194 16.4986918,18.2532704 16.4514437,18.3713907 L15.2514437,21.3713907 C15.0995804,21.7510491 14.7318716,22 14.322967,22 L9.67703296,22 C9.26812837,22 8.90041962,21.7510491 8.74855627,21.3713907 L7.54855627,18.3713907 C7.49077145,18.2269286 7.46906121,18.0769754 7.47915131,17.9315043 C6.62713605,17.7023162 6,16.9243959 6,16 L6,8 C6,7.07553642 6.62722795,6.29756977 7.47933858,6.06844534 C7.47780977,6.04582819 7.47703296,6.02300481 7.47703296,6 C7.47703296,5.87278057 7.50130816,5.7467296 7.54855627,5.62860932 L8.74855627,2.62860932 C8.90041962,2.24895094 9.26812837,2 9.67703296,2 L14.322967,2 C14.7318716,2 15.0995804,2.24895094 15.2514437,2.62860932 L16.4514437,5.62860932 C16.5092286,5.77307138 16.5309388,5.92302459 16.5208487,6.0684957 C17.3728639,6.29768376 18,7.07560414 18,8 L18,9 C18.5522847,9 19,9.44771525 19,10 L19,11 C19,11.5522847 18.5522847,12 18,12 Z" id="Combined-Shape" fill-rule="nonzero"></path>
            </g>
        </g>
    </g>
</svg>