<?xml version="1.0" encoding="UTF-8"?>
<svg width="24px" height="24px" viewBox="0 0 24 24" version="1.1" xmlns="http://www.w3.org/2000/svg" xmlns:xlink="http://www.w3.org/1999/xlink">
    <!-- Generator: Sketch 51 (57462) - http://www.bohemiancoding.com/sketch -->
    <title>58 devices - ipod</title>
    <desc>Created with Sketch.</desc>
    <defs></defs>
    <g id="Page-1" stroke="none" stroke-width="1" fill="none" fill-rule="evenodd">
        <g id="DA-iconset-alpha" transform="translate(-312.000000, -168.000000)" fill="#000000">
            <g id="icons/hardware/player_apple" transform="translate(312.000000, 168.000000)">
                <rect id="bg-icon" opacity="0" x="0" y="0" width="24" height="24"></rect>
                <path d="M9,4 L15,4 C16.1045695,4 17,4.8954305 17,6 L17,19 C17,20.1045695 16.1045695,21 15,21 L9,21 C7.8954305,21 7,20.1045695 7,19 L7,6 C7,4.8954305 7.8954305,4 9,4 Z M12,19 C13.6568542,19 15,17.6568542 15,16 C15,14.3431458 13.6568542,13 12,13 C10.3431458,13 9,14.3431458 9,16 C9,17.6568542 10.3431458,19 12,19 Z M9,6 L9,11 L15,11 L15,6 L9,6 Z M12,17 C11.4477153,17 11,16.5522847 11,16 C11,15.4477153 11.4477153,15 12,15 C12.5522847,15 13,15.4477153 13,16 C13,16.5522847 12.5522847,17 12,17 Z" id="Combined-Shape"></path>
            </g>
        </g>
    </g>
</svg>