<?xml version="1.0" encoding="UTF-8"?>
<svg width="24px" height="24px" viewBox="0 0 24 24" version="1.1" xmlns="http://www.w3.org/2000/svg" xmlns:xlink="http://www.w3.org/1999/xlink">
    <!-- Generator: Sketch 51 (57462) - http://www.bohemiancoding.com/sketch -->
    <title>60 devices - headset</title>
    <desc>Created with Sketch.</desc>
    <defs></defs>
    <g id="Page-1" stroke="none" stroke-width="1" fill="none" fill-rule="evenodd">
        <g id="DA-iconset-alpha" transform="translate(-408.000000, -168.000000)" fill="#000000" fill-rule="nonzero">
            <g id="icons/hardware/headset" transform="translate(408.000000, 168.000000)">
                <path d="M18.612941,19.987432 C17.4980679,20.9374539 15.8218311,21.7130673 14,22 C14,22.5522847 13.5522847,23 13,23 L12,23 C11.4477153,23 11,22.5522847 11,22 L11,21 C11,20.4477153 11.4477153,20 12,20 L13,20 C13.5475582,20 13.992329,20.4400847 13.9999018,20.9858434 L14,20.9858203 C15.2389114,20.7682512 16.3849496,20.3053243 17.2664112,19.7501869 L17.105704,19.7218499 C16.5618097,19.6259467 16.1986412,19.1072883 16.2945444,18.563394 L17.3364335,12.6545475 C17.4323367,12.1106532 17.9509951,11.7474847 18.4948894,11.8433879 L19.7318729,12.0615015 C19.9067823,11.4037905 20,10.7127813 20,10 C20,8.93909956 19.7934929,7.92643144 19.418483,7 L18.326886,7 C18.1330708,6.59217263 17.8997392,6.20357365 17.6301126,5.83948377 C16.3161756,4.06521026 14.2486643,3 12,3 C9.75133575,3 7.68382443,4.06521026 6.36988737,5.83948377 C6.10026085,6.20357365 5.86692917,6.59217263 5.67311398,7 L4.58151705,7 C4.20650713,7.92643144 4,8.93909956 4,10 C4,10.7127813 4.09321771,11.4037905 4.26812712,12.0615015 L5.50511057,11.8433879 C6.04900487,11.7474847 6.56766326,12.1106532 6.6635665,12.6545475 L7.70545556,18.563394 C7.8013588,19.1072883 7.43819029,19.6259467 6.89429599,19.7218499 L5.41708436,19.9823222 C4.0573486,20.2220803 2.76070263,19.314159 2.52094453,17.9544233 L2,15 C1.80562437,13.897641 2.36557223,12.8367484 3.30905145,12.3468682 C3.10750322,11.5986597 3,10.8118842 3,10 C3,5.02943725 7.02943725,1 12,1 C16.9705627,1 21,5.02943725 21,10 C21,10.8118842 20.8924968,11.5986597 20.6909485,12.3468682 C21.6344278,12.8367484 22.1943756,13.897641 22,15 L21.4790555,17.9544233 C21.2410628,19.304147 19.961689,20.2086854 18.612941,19.987432 Z" id="Combined-Shape"></path>
            </g>
        </g>
    </g>
</svg>