<?xml version="1.0" encoding="UTF-8"?>
<svg width="24px" height="24px" viewBox="0 0 24 24" version="1.1" xmlns="http://www.w3.org/2000/svg" xmlns:xlink="http://www.w3.org/1999/xlink">
    <!-- Generator: Sketch 51 (57462) - http://www.bohemiancoding.com/sketch -->
    <title>61 devices - joystick games</title>
    <desc>Created with Sketch.</desc>
    <defs></defs>
    <g id="Page-1" stroke="none" stroke-width="1" fill="none" fill-rule="evenodd">
        <g id="DA-iconset-alpha" transform="translate(-456.000000, -168.000000)" fill="#000000">
            <g id="icons/hardware/gamepad" transform="translate(456.000000, 168.000000)">
                <rect id="bg-icon" opacity="0" x="0" y="0" width="24" height="24"></rect>
                <path d="M5,5 L19,5 C21.7614237,5 24,7.23857625 24,10 L24,14 C24,16.7614237 21.7614237,19 19,19 L18,19 C16.3641822,19 14.9118401,18.2144467 13.9996338,17 L10.0003662,17 C9.08815986,18.2144467 7.63581783,19 6,19 L5,19 C2.23857625,19 3.38176876e-16,16.7614237 0,14 L0,10 C-3.38176876e-16,7.23857625 2.23857625,5 5,5 Z M18,8 C17.4477153,8 17,8.44771525 17,9 C17,9.55228475 17.4477153,10 18,10 C18.5522847,10 19,9.55228475 19,9 C19,8.44771525 18.5522847,8 18,8 Z M16,10 C15.4477153,10 15,10.4477153 15,11 C15,11.5522847 15.4477153,12 16,12 C16.5522847,12 17,11.5522847 17,11 C17,10.4477153 16.5522847,10 16,10 Z M20,10 C19.4477153,10 19,10.4477153 19,11 C19,11.5522847 19.4477153,12 20,12 C20.5522847,12 21,11.5522847 21,11 C21,10.4477153 20.5522847,10 20,10 Z M18,12 C17.4477153,12 17,12.4477153 17,13 C17,13.5522847 17.4477153,14 18,14 C18.5522847,14 19,13.5522847 19,13 C19,12.4477153 18.5522847,12 18,12 Z M7,10 L7,8 L5,8 L5,10 L3,10 L3,12 L5,12 L5,14 L7,14 L7,12 L9,12 L9,10 L7,10 Z" id="Combined-Shape"></path>
            </g>
        </g>
    </g>
</svg>