<?xml version="1.0" encoding="UTF-8"?>
<svg width="24px" height="24px" viewBox="0 0 24 24" version="1.1" xmlns="http://www.w3.org/2000/svg" xmlns:xlink="http://www.w3.org/1999/xlink">
    <!-- Generator: Sketch 51 (57462) - http://www.bohemiancoding.com/sketch -->
    <title>62 devices - photo camera</title>
    <desc>Created with Sketch.</desc>
    <defs></defs>
    <g id="Page-1" stroke="none" stroke-width="1" fill="none" fill-rule="evenodd">
        <g id="DA-iconset-alpha" transform="translate(-504.000000, -168.000000)">
            <g id="icons/hardware/photo-camera" transform="translate(504.000000, 168.000000)">
                <rect id="bounds" x="0" y="0" width="24" height="24"></rect>
                <path d="M11,3 L10,5 L4,5 C2.9,5 2,5.9 2,7 L2,19 C2,20.1 2.9,21 4,21 L20,21 C21.1,21 22,20.1 22,19 L22,7 C22,5.9 21.1,5 20,5 L18,5 L17,3 L11,3 Z M14,18 C11.24,18 9,15.76 9,13 C9,10.24 11.24,8 14,8 C16.76,8 19,10.24 19,13 C19,15.76 16.76,18 14,18 Z M14,16 C15.6568542,16 17,14.6568542 17,13 C17,11.3431458 15.6568542,10 14,10 C12.3431458,10 11,11.3431458 11,13 C11,14.6568542 12.3431458,16 14,16 Z" id="Shape" fill="#000000" fill-rule="nonzero"></path>
            </g>
        </g>
    </g>
</svg>