<?xml version="1.0" encoding="UTF-8"?>
<svg width="24px" height="24px" viewBox="0 0 24 24" version="1.1" xmlns="http://www.w3.org/2000/svg" xmlns:xlink="http://www.w3.org/1999/xlink">
    <!-- Generator: Sketch 51 (57462) - http://www.bohemiancoding.com/sketch -->
    <title>63 devices - server</title>
    <desc>Created with Sketch.</desc>
    <defs></defs>
    <g id="Page-1" stroke="none" stroke-width="1" fill="none" fill-rule="evenodd">
        <g id="DA-iconset-alpha" transform="translate(-600.000000, -168.000000)" fill="#000000">
            <g id="icons/hardware/server" transform="translate(600.000000, 168.000000)">
                <rect id="bg-icon" opacity="0" x="0" y="0" width="24" height="24"></rect>
                <path d="M22,9 L22,15 L2,15 L2,9 L22,9 Z M22,8 L2,8 L2,2 L22,2 L22,8 Z M22,16 L22,22 L2,22 L2,16 L22,16 Z M7,4 L7,6 L8,6 L8,4 L7,4 Z M4,4 L4,6 L6,6 L6,4 L4,4 Z M4,11 L4,13 L6,13 L6,11 L4,11 Z M7,11 L7,13 L8,13 L8,11 L7,11 Z M4,18 L4,20 L6,20 L6,18 L4,18 Z M7,18 L7,20 L8,20 L8,18 L7,18 Z" id="Combined-Shape"></path>
            </g>
        </g>
    </g>
</svg>