<?xml version="1.0" encoding="UTF-8"?>
<svg width="24px" height="24px" viewBox="0 0 24 24" version="1.1" xmlns="http://www.w3.org/2000/svg" xmlns:xlink="http://www.w3.org/1999/xlink">
    <!-- Generator: Sketch 51 (57462) - http://www.bohemiancoding.com/sketch -->
    <title>65 devices - floppy save</title>
    <desc>Created with Sketch.</desc>
    <defs></defs>
    <g id="Page-1" stroke="none" stroke-width="1" fill="none" fill-rule="evenodd">
        <g id="DA-iconset-alpha" transform="translate(-648.000000, -168.000000)">
            <g id="icons/action/save2" transform="translate(648.000000, 168.000000)">
                <polygon id="bounds" points="0 0 24 0 24 24 0 24"></polygon>
                <path d="M4,2 L16.1715729,2 C16.7020059,2 17.2107137,2.21071368 17.5857864,2.58578644 L21.4142136,6.41421356 C21.7892863,6.78928632 22,7.29799415 22,7.82842712 L22,20 C22,21.1045695 21.1045695,22 20,22 L4,22 C2.8954305,22 2,21.1045695 2,20 L2,4 C2,2.8954305 2.8954305,2 4,2 Z M7,4 L7,8 L14,8 L14,4 L7,4 Z M7,14 L7,20 L17,20 L17,14 L7,14 Z" id="Combined-Shape" fill="#000000" fill-rule="evenodd"></path>
            </g>
        </g>
    </g>
</svg>