<?xml version="1.0" encoding="UTF-8"?>
<svg width="24px" height="24px" viewBox="0 0 24 24" version="1.1" xmlns="http://www.w3.org/2000/svg" xmlns:xlink="http://www.w3.org/1999/xlink">
    <!-- Generator: Sketch 51 (57462) - http://www.bohemiancoding.com/sketch -->
    <title>69 editor - image</title>
    <desc>Created with Sketch.</desc>
    <defs></defs>
    <g id="Page-1" stroke="none" stroke-width="1" fill="none" fill-rule="evenodd">
        <g id="DA-iconset-alpha" transform="translate(-72.000000, -216.000000)">
            <g id="icons/editor/attach_photo" transform="translate(72.000000, 216.000000)">
                <rect id="bounds" x="0" y="0" width="24" height="24"></rect>
                <path d="M10.9983333,16.7121429 L8.5,13.5 L5,18 L12,18 L11.9966667,17.9957143 L19,17.9957143 L14.5,12.21 L10.9983333,16.7121429 Z M21,19 C21,20.1 20.1,21 19,21 L5,21 C3.9,21 3,20.1 3,19 L3,5 C3,3.9 3.9,3 5,3 L19,3 C20.1,3 21,3.9 21,5 L21,19 Z" id="Combined-Shape" fill="#000000" fill-rule="nonzero"></path>
            </g>
        </g>
    </g>
</svg>