<?xml version="1.0" encoding="UTF-8"?>
<svg width="24px" height="24px" viewBox="0 0 24 24" version="1.1" xmlns="http://www.w3.org/2000/svg" xmlns:xlink="http://www.w3.org/1999/xlink">
    <!-- Generator: Sketch 51 (57462) - http://www.bohemiancoding.com/sketch -->
    <title>7 actions - like inactive</title>
    <desc>Created with Sketch.</desc>
    <defs></defs>
    <g id="Page-1" stroke="none" stroke-width="1" fill="none" fill-rule="evenodd">
        <g id="DA-iconset-alpha" transform="translate(-312.000000, -24.000000)">
            <g id="icons/action/favorite_border" transform="translate(312.000000, 24.000000)">
                <polygon id="bounds" points="0 0 24 0 24 24 0 24"></polygon>
                <path d="M19.998508,8.89041733 C19.9995028,8.85184381 20,8.81337487 20,8.77501046 C20,6.69772653 18.238821,5 16.05,5 C16.0415745,5 16.0331536,5.00002536 16.0247374,5.00007602 C14.9928181,4.99373398 13.9589128,5.38423293 13.1715729,6.17157288 L12,7.34314575 L10.8284271,6.17157288 C10.0410872,5.38423293 9.00718186,4.99373398 7.97526262,5.00007602 C7.96684644,5.00002536 7.95842553,5 7.95,5 C5.76117902,5 4,6.69772653 4,8.77501046 C4,8.81337487 4.00049716,8.85184381 4.00149198,8.89041733 C3.98390809,9.53603827 4.12175218,10.1851054 4.41502424,10.7766952 C5.34469393,13.1100005 7.84468009,15.7707943 12,18.7679323 C16.1553199,15.7707943 18.6553061,13.1100005 19.5849758,10.7766952 C19.8782478,10.1851054 20.0160919,9.53603827 19.998508,8.89041733 Z M16.05,3 C19.3273035,3 22,5.57640348 22,8.77501046 C22,12.3883385 19.0239635,16.1772539 13.1187653,20.4269115 L12,21.2320275 L10.8812347,20.4269115 C4.97603646,16.1772539 2,12.3883385 2,8.77501046 C2,5.57640348 4.6726965,3 7.95,3 C9.48045073,3 10.9165421,3.5660717 12,4.54361084 C13.0834579,3.5660717 14.5195493,3 16.05,3 Z" id="Combined-Shape" fill="#000000" fill-rule="nonzero"></path>
            </g>
        </g>
    </g>
</svg>