<?xml version="1.0" encoding="UTF-8"?>
<svg width="24px" height="24px" viewBox="0 0 24 24" version="1.1" xmlns="http://www.w3.org/2000/svg" xmlns:xlink="http://www.w3.org/1999/xlink">
    <!-- Generator: Sketch 51 (57462) - http://www.bohemiancoding.com/sketch -->
    <title>75 file - folders</title>
    <desc>Created with Sketch.</desc>
    <defs></defs>
    <g id="Page-1" stroke="none" stroke-width="1" fill="none" fill-rule="evenodd">
        <g id="DA-iconset-alpha" transform="translate(-120.000000, -264.000000)">
            <g id="icons/file/folder-multiple" transform="translate(120.000000, 264.000000)">
                <polygon id="bounds" points="0 0 24 0 24 24 0 24"></polygon>
                <path d="M11.5799299,2 C11.8450598,2 12.0993379,2.1052882 12.2868598,2.29271642 L13.9949975,4 L22,4 C23.1045695,4 24,4.8954305 24,6 L24,16 C24,17.1045695 23.1045695,18 22,18 L6,18 C4.8954305,18 4,17.1045695 4,16 L4,4 C4,2.8954305 4.8954305,2 6,2 L11.5799299,2 Z M4,20 L20,20 L20,22 L3,22 C1.34314575,22 2.02906125e-16,20.6568542 0,19 L0,6 L2,6 L2,18 C2,19.1045695 2.8954305,20 4,20 Z" id="Combined-Shape" fill="#000000" fill-rule="nonzero"></path>
            </g>
        </g>
    </g>
</svg>