<?xml version="1.0" encoding="UTF-8"?>
<svg width="24px" height="24px" viewBox="0 0 24 24" version="1.1" xmlns="http://www.w3.org/2000/svg" xmlns:xlink="http://www.w3.org/1999/xlink">
    <!-- Generator: Sketch 51 (57462) - http://www.bohemiancoding.com/sketch -->
    <title>77 file - delete folder</title>
    <desc>Created with Sketch.</desc>
    <defs></defs>
    <g id="Page-1" stroke="none" stroke-width="1" fill="none" fill-rule="evenodd">
        <g id="DA-iconset-alpha" transform="translate(-216.000000, -264.000000)">
            <g id="icons/file/folder_remove" transform="translate(216.000000, 264.000000)">
                <polygon id="bounds" points="0 0 24 0 24 24 0 24"></polygon>
                <path d="M15,11.5857864 L12.4571068,9.04289322 L11.0428932,10.4571068 L13.5857864,13 L11.0428932,15.5428932 L12.4571068,16.9571068 L15,14.4142136 L17.5428932,16.9571068 L18.9571068,15.5428932 L16.4142136,13 L18.9571068,10.4571068 L17.5428932,9.04289322 L15,11.5857864 Z M9.58578644,4 C9.85100293,4 10.1053568,4.10535684 10.2928932,4.29289322 L12,6 L20,6 C21.1045695,6 22,6.8954305 22,8 L22,18 C22,19.1045695 21.1045695,20 20,20 L4,20 C2.8954305,20 2,19.1045695 2,18 L2,6 C2,4.8954305 2.8954305,4 4,4 L9.58578644,4 Z" id="Combined-Shape" fill="#000000" fill-rule="nonzero"></path>
            </g>
        </g>
    </g>
</svg>