<?xml version="1.0" encoding="UTF-8"?>
<svg width="24px" height="24px" viewBox="0 0 24 24" version="1.1" xmlns="http://www.w3.org/2000/svg" xmlns:xlink="http://www.w3.org/1999/xlink">
    <!-- Generator: Sketch 51 (57462) - http://www.bohemiancoding.com/sketch -->
    <title>79 file - move folder</title>
    <desc>Created with Sketch.</desc>
    <defs></defs>
    <g id="Page-1" stroke="none" stroke-width="1" fill="none" fill-rule="evenodd">
        <g id="DA-iconset-alpha" transform="translate(-312.000000, -264.000000)">
            <g id="icons/file/folder_move" transform="translate(312.000000, 264.000000)">
                <polygon id="bounds" points="0 0 24 0 24 24 0 24"></polygon>
                <path d="M9.57578644,4 C9.84100293,4 10.0953568,4.10535684 10.2828932,4.29289322 L11.99,6 L19.99,6 C21.0945695,6 21.99,6.8954305 21.99,8 L21.99,18 C21.99,19.1045695 21.0945695,20 19.99,20 L4,20 C2.8954305,20 2,19.1045695 2,18 L2,6 C2,4.8954305 2.8954305,4 4,4 L9.57578644,4 Z M14,15 L14,17.0000002 L18,13 L14,9 L14,11 L11,11 L11,15 L14,15 Z" id="Combined-Shape" fill="#000000" fill-rule="nonzero"></path>
            </g>
        </g>
    </g>
</svg>