<?xml version="1.0" encoding="UTF-8"?>
<svg width="24px" height="24px" viewBox="0 0 24 24" version="1.1" xmlns="http://www.w3.org/2000/svg" xmlns:xlink="http://www.w3.org/1999/xlink">
    <!-- Generator: Sketch 51 (57462) - http://www.bohemiancoding.com/sketch -->
    <title>84 file - list poll</title>
    <desc>Created with Sketch.</desc>
    <defs></defs>
    <g id="Page-1" stroke="none" stroke-width="1" fill="none" fill-rule="evenodd">
        <g id="DA-iconset-alpha" transform="translate(-552.000000, -264.000000)">
            <g id="icons/file/poll" transform="translate(552.000000, 264.000000)">
                <rect id="bounds" x="0" y="0" width="24" height="24"></rect>
                <path d="M19,3 C20.1,3 21,3.89 21,5 L21,19 C21,20.1045695 20.1045695,21 19,21 L5,21 C3.8954305,21 3,20.1045695 3,19 L3,5 C3,3.89 3.89,3 5,3 L19,3 Z M18,17 L18,15 L9,15 L9,17 L18,17 Z M18,13 L18,11 L9,11 L9,13 L18,13 Z M18,9 L18,7 L9,7 L9,9 L18,9 Z M8,17 L8,15 L6,15 L6,17 L8,17 Z M8,13 L8,11 L6,11 L6,13 L8,13 Z M8,9 L8,7 L6,7 L6,9 L8,9 Z" id="Combined-Shape" fill="#000000" fill-rule="nonzero"></path>
            </g>
        </g>
    </g>
</svg>