<?xml version="1.0" encoding="UTF-8"?>
<svg width="24px" height="24px" viewBox="0 0 24 24" version="1.1" xmlns="http://www.w3.org/2000/svg" xmlns:xlink="http://www.w3.org/1999/xlink">
    <!-- Generator: Sketch 51 (57462) - http://www.bohemiancoding.com/sketch -->
    <title>86 file - excel file</title>
    <desc>Created with Sketch.</desc>
    <defs></defs>
    <g id="Page-1" stroke="none" stroke-width="1" fill="none" fill-rule="evenodd">
        <g id="DA-iconset-alpha" transform="translate(-648.000000, -264.000000)">
            <g id="icons/file/excel" transform="translate(648.000000, 264.000000)">
                <polygon id="bounds" points="0 0 24 0 24 24 0 24"></polygon>
                <path d="M16.2,17 L14.2,17 L12,13.2 L9.8,17 L7.8,17 L11,12 L7.8,7 L9.8,7 L12,10.8 L14.2,7 L16.2,7 L13,12 L16.2,17 Z M19,3 L5,3 C3.89,3 3,3.89 3,5 L3,19 C3,20.1045695 3.8954305,21 5,21 L19,21 C20.1045695,21 21,20.1045695 21,19 L21,5 C21,3.89 20.1,3 19,3 Z" id="Shape" fill="#000000" fill-rule="nonzero"></path>
            </g>
        </g>
    </g>
</svg>