<?xml version="1.0" encoding="UTF-8"?>
<svg width="24px" height="24px" viewBox="0 0 24 24" version="1.1" xmlns="http://www.w3.org/2000/svg" xmlns:xlink="http://www.w3.org/1999/xlink">
    <!-- Generator: Sketch 51 (57462) - http://www.bohemiancoding.com/sketch -->
    <title>88 file - database</title>
    <desc>Created with Sketch.</desc>
    <defs></defs>
    <g id="Page-1" stroke="none" stroke-width="1" fill="none" fill-rule="evenodd">
        <g id="DA-iconset-alpha" transform="translate(-744.000000, -264.000000)">
            <g id="icons/file/database" transform="translate(744.000000, 264.000000)">
                <rect id="bounds" x="0" y="0" width="24" height="24"></rect>
                <path d="M4,9 C4,11.209139 7.581722,13 12,13 C16.418278,13 20,11.209139 20,9 L20,12 C20,14.209139 16.418278,16 12,16 C7.581722,16 4,14.209139 4,12 L4,9 Z M4,14 C4,16.209139 7.581722,18 12,18 C16.418278,18 20,16.209139 20,14 L20,17 C20,19.209139 16.418278,21 12,21 C7.581722,21 4,19.209139 4,17 L4,14 Z M12,11 C7.581722,11 4,9.209139 4,7 C4,4.790861 7.581722,3 12,3 C16.418278,3 20,4.790861 20,7 C20,9.209139 16.418278,11 12,11 Z" id="Combined-Shape" fill="#000000" fill-rule="evenodd"></path>
            </g>
        </g>
    </g>
</svg>