<?xml version="1.0" encoding="UTF-8"?>
<svg width="24px" height="24px" viewBox="0 0 24 24" version="1.1" xmlns="http://www.w3.org/2000/svg" xmlns:xlink="http://www.w3.org/1999/xlink">
    <!-- Generator: Sketch 51 (57462) - http://www.bohemiancoding.com/sketch -->
    <title>89 file - multiple files sheets</title>
    <desc>Created with Sketch.</desc>
    <defs></defs>
    <g id="Page-1" stroke="none" stroke-width="1" fill="none" fill-rule="evenodd">
        <g id="DA-iconset-alpha" transform="translate(-792.000000, -264.000000)" fill="#000000">
            <g id="icons/file/multiple2" transform="translate(792.000000, 264.000000)">
                <rect id="bg" opacity="0" x="0" y="0" width="24" height="24"></rect>
                <path d="M9,2 L16,2 L21,7 L21,16 C21,17.1045695 20.1045695,18 19,18 L9,18 C7.8954305,18 7,17.1045695 7,16 L7,4 C7,2.8954305 7.8954305,2 9,2 Z M9,4 L9,16 L19,16 L19,8 L15,8 L15,4 L9,4 Z M5,6 L5,20 L17,20 C17,21.1045695 16.1045695,22 15,22 L5,22 C3.8954305,22 3,21.1045695 3,20 L3,8 C3,6.8954305 3.8954305,6 5,6 Z" id="Combined-Shape"></path>
            </g>
        </g>
    </g>
</svg>