<?xml version="1.0" encoding="UTF-8"?>
<svg width="24px" height="24px" viewBox="0 0 24 24" version="1.1" xmlns="http://www.w3.org/2000/svg" xmlns:xlink="http://www.w3.org/1999/xlink">
    <!-- Generator: Sketch 51 (57462) - http://www.bohemiancoding.com/sketch -->
    <title>91 file - attachment</title>
    <desc>Created with Sketch.</desc>
    <defs></defs>
    <g id="Page-1" stroke="none" stroke-width="1" fill="none" fill-rule="evenodd">
        <g id="DA-iconset-alpha" transform="translate(-888.000000, -264.000000)" fill="#000000" fill-rule="nonzero">
            <g id="icons/file/attachment" transform="translate(888.000000, 264.000000)">
                <path d="M16.9775401,9.86676851 L18.3996945,8.44461419 C19.1851286,7.65918004 19.1851286,6.38573969 18.3996945,5.60030554 C17.6142603,4.8148714 16.34082,4.8148714 15.5553858,5.60030554 L5.60030554,15.5553858 C4.8148714,16.34082 4.8148714,17.6142603 5.60030554,18.3996945 C6.38573969,19.1851286 7.65918004,19.1851286 8.44461419,18.3996945 L13.7776929,13.0666157 C13.9740514,12.8702572 13.9740514,12.5518971 13.7776929,12.3555386 C13.5813344,12.15918 13.2629743,12.15918 13.0666157,12.3555386 L8.44461419,16.9775401 C8.05189712,17.3702572 7.41517694,17.3702572 7.02245987,16.9775401 C6.62974279,16.5848231 6.62974279,15.9481029 7.02245987,15.5553858 L11.6444614,10.9333843 C12.6262541,9.95159158 14.2180545,9.95159158 15.1998472,10.9333843 C16.1816399,11.9151769 16.1816399,13.5069774 15.1998472,14.4887701 L9.86676851,19.8218488 C8.29590022,21.3927171 5.74901951,21.3927171 4.17815122,19.8218488 C2.60728293,18.2509805 2.60728293,15.7040998 4.17815122,14.1332315 L14.1332315,4.17815122 C15.7040998,2.60728293 18.2509805,2.60728293 19.8218488,4.17815122 C21.3927171,5.74901951 21.3927171,8.29590022 19.8218488,9.86676851 L18.3996945,11.2889228 C18.0069774,11.6816399 17.3702572,11.6816399 16.9775401,11.2889228 C16.5848231,10.8962058 16.5848231,10.2594856 16.9775401,9.86676851 Z" id="Path-5"></path>
            </g>
        </g>
    </g>
</svg>