<?xml version="1.0" encoding="UTF-8"?>
<svg width="24px" height="24px" viewBox="0 0 24 24" version="1.1" xmlns="http://www.w3.org/2000/svg" xmlns:xlink="http://www.w3.org/1999/xlink">
    <!-- Generator: Sketch 51 (57462) - http://www.bohemiancoding.com/sketch -->
    <title>95 file - cloud border</title>
    <desc>Created with Sketch.</desc>
    <defs></defs>
    <g id="Page-1" stroke="none" stroke-width="1" fill="none" fill-rule="evenodd">
        <g id="DA-iconset-alpha" transform="translate(-1080.000000, -264.000000)" fill="#000000">
            <g id="icons/common/file/cloud_border" transform="translate(1080.000000, 264.000000)">
                <polygon id="bounds" fill-rule="evenodd" opacity="0" points="0 0 24 0 24 24 0 24"></polygon>
                <path d="M18,17 C19.1045695,17 20,16.1045695 20,15 C20,13.8954305 19.1045695,13 18,13 L17,13 L17,12 C17,9.23857625 14.7614237,7 12,7 C9.84553085,7 7.9536604,8.37525819 7.26766961,10.380932 L7.07543579,10.9429779 L6.4899105,11.0430261 C5.06095335,11.2871908 4,12.5328744 4,14 C4,15.6568542 5.34314575,17 7,17 L18,17 Z M22,15 C22,17.209139 20.209139,19 18,19 L8.17705098,19 L7,19 C4.23857625,19 2,16.7614237 2,14 C2,11.7543525 3.49000961,9.82120949 5.58062879,9.20439897 C6.67717693,6.68588075 9.17739877,5 12,5 C15.5652157,5 18.5079126,7.66532009 18.944221,11.1120907 C20.6976796,11.5364324 22,13.1161296 22,15 Z" id="Combined-Shape" fill-rule="nonzero"></path>
            </g>
        </g>
    </g>
</svg>