<?xml version="1.0" encoding="UTF-8"?>
<svg width="24px" height="24px" viewBox="0 0 24 24" version="1.1" xmlns="http://www.w3.org/2000/svg" xmlns:xlink="http://www.w3.org/1999/xlink">
    <!-- Generator: Sketch 51 (57462) - http://www.bohemiancoding.com/sketch -->
    <title>99 editor - image multiple</title>
    <desc>Created with Sketch.</desc>
    <defs></defs>
    <g id="Page-1" stroke="none" stroke-width="1" fill="none" fill-rule="evenodd">
        <g id="DA-iconset-alpha" transform="translate(-360.000000, -216.000000)">
            <g id="icons/image/photo_collection" transform="translate(360.000000, 216.000000)">
                <rect id="bounds" x="0" y="0" width="24" height="24"></rect>
                <path d="M12.1414286,15.8989793 L10,13.1457139 L7,17.0028568 L13,17.0028568 L12.9971429,16.9991834 L19,16.9991834 L15.1428571,12.0399997 L12.1414286,15.8989793 Z M1,7 L3,7 L3,21 L17,21 L17,23 L3,23 C1.9,23 1,22.1 1,21 L1,7 Z M21,17 C21,18.1 20.1,19 19,19 L7,19 C5.9,19 5,18.1 5,17 L5,5 C5,3.9 5.9,3 7,3 L19,3 C20.1,3 21,3.9 21,5 L21,17 Z" id="Combined-Shape" fill="#000000" fill-rule="evenodd"></path>
            </g>
        </g>
    </g>
</svg>